<svg width="48" height="48" viewBox="0 0 48 48" fill="none" xmlns="http://www.w3.org/2000/svg">
<path d="M24.8245 21.1611C24.7971 23.3203 26.7487 24.5252 28.2188 25.2416C29.7294 25.9767 30.2367 26.448 30.231 27.1052C30.2194 28.1113 29.026 28.5553 27.909 28.5725C25.9602 28.6028 24.8273 28.0465 23.9265 27.6256L23.2246 30.9104C24.1283 31.327 25.8017 31.6902 27.5371 31.7061C31.6104 31.7061 34.2754 29.6954 34.2898 26.5777C34.3057 22.6212 28.817 22.4021 28.8545 20.6336C28.8675 20.0974 29.3791 19.5252 30.5005 19.3796C31.0554 19.3061 32.5876 19.2499 34.3244 20.0498L35.0062 16.8716C34.0722 16.5315 32.8715 16.2057 31.3769 16.2057C27.5428 16.2057 24.8461 18.2438 24.8245 21.1611ZM41.5571 16.4796C40.8134 16.4796 40.1864 16.9134 39.9068 17.5793L34.088 31.4726H38.1584L38.9685 29.2341H43.9426L44.4125 31.4726H48L44.8694 16.4796H41.5571ZM42.1265 20.5298L43.3012 26.1597H40.0841L42.1265 20.5298ZM19.8893 16.4796L16.6808 31.4726H20.5595L23.7665 16.4796H19.8893ZM14.1512 16.4796L10.114 26.6844L8.48093 18.0074C8.28923 17.0388 7.53252 16.4796 6.69221 16.4796H0.0922467L0 16.9149C1.35487 17.2089 2.89424 17.6831 3.8268 18.1905C4.39757 18.5004 4.56045 18.7713 4.74782 19.5079L7.84097 31.4726H11.9402L18.2245 16.4796H14.1512Z" fill="#1434CB"/>
</svg>
