<svg width="24" height="24" viewBox="0 0 24 24" fill="none" xmlns="http://www.w3.org/2000/svg">
<path fill-rule="evenodd" clip-rule="evenodd" d="M1.25 8.00003C1.25 5.37668 3.37665 3.25003 6 3.25003H18C20.6234 3.25003 22.75 5.37668 22.75 8.00003V16C22.75 18.6234 20.6234 20.75 18 20.75H6C3.37665 20.75 1.25 18.6234 1.25 16V8.00003ZM6 4.75003C4.20507 4.75003 2.75 6.20511 2.75 8.00003V16C2.75 17.795 4.20507 19.25 6 19.25H18C19.7949 19.25 21.25 17.795 21.25 16V8.00003C21.25 6.20511 19.7949 4.75003 18 4.75003H6Z" fill="#111111"/>
<path fill-rule="evenodd" clip-rule="evenodd" d="M22 12H2V9H22V12Z" fill="black"/>
</svg>
