<svg width="24" height="24" viewBox="0 0 24 24" fill="none" xmlns="http://www.w3.org/2000/svg">
<path fill-rule="evenodd" clip-rule="evenodd" d="M15.5001 9.5C15.5001 11.433 13.9331 13 12.0001 13C10.0671 13 8.50009 11.433 8.50009 9.5C8.50009 7.567 10.0671 6 12.0001 6C13.9331 6 15.5001 7.567 15.5001 9.5ZM17.0001 9.5C17.0001 12.2614 14.7615 14.5 12.0001 14.5C9.23866 14.5 7.00009 12.2614 7.00009 9.5C7.00009 6.73858 9.23866 4.5 12.0001 4.5C14.7615 4.5 17.0001 6.73858 17.0001 9.5ZM5.6112 20.6996L6.14153 20.1692C9.37712 16.9336 14.6231 16.9336 17.8586 20.1692L18.389 20.6996L19.4496 19.6389L18.9193 19.1086C15.0979 15.2872 8.90225 15.2872 5.08087 19.1086L4.55054 19.6389L5.6112 20.6996Z" fill="#111111"/>
</svg>
