<svg width="24" height="24" viewBox="0 0 24 24" fill="none" xmlns="http://www.w3.org/2000/svg">
<path d="M17.2808 13.1566C17.3103 16.3346 20.0687 17.3922 20.0992 17.4057C20.0759 17.4802 19.6585 18.9128 18.646 20.3925C17.7707 21.6717 16.8623 22.9463 15.4313 22.9727C14.0251 22.9986 13.573 22.1389 11.9654 22.1389C10.3583 22.1389 9.85592 22.9463 8.52486 22.9986C7.14356 23.0509 6.09171 21.6153 5.20917 20.3407C3.40579 17.7335 2.02764 12.9733 3.87815 9.76014C4.79744 8.16447 6.44029 7.15402 8.22345 7.12811C9.57986 7.10223 10.8601 8.04065 11.6893 8.04065C12.518 8.04065 14.0738 6.91212 15.7094 7.07786C16.3941 7.10636 18.3161 7.35444 19.5502 9.16093C19.4508 9.22258 17.2569 10.4997 17.2808 13.1566V13.1566ZM14.6381 5.35296C15.3714 4.46528 15.865 3.22955 15.7304 2C14.6733 2.04248 13.3951 2.70439 12.6369 3.59159C11.9574 4.37724 11.3623 5.63472 11.5229 6.83994C12.7011 6.93109 13.9047 6.24121 14.6381 5.35297" fill="black"/>
</svg>
