<svg width="25" height="24" viewBox="0 0 25 24" fill="none" xmlns="http://www.w3.org/2000/svg">
<path d="M7.1875 11.9999C7.1875 11.009 7.46051 10.0808 7.9348 9.28596V5.91455H4.5634C3.22531 7.65236 2.5 9.77029 2.5 11.9999C2.5 14.2295 3.22531 16.3474 4.5634 18.0853H7.9348V14.7138C7.46051 13.919 7.1875 12.9908 7.1875 11.9999Z" fill="#FBBD00"/>
<path d="M12.5 17.3126L10.1562 19.6563L12.5 22.0001C14.7296 22.0001 16.8475 21.2747 18.5854 19.9367V16.5688H15.2175C14.4158 17.0449 13.4836 17.3126 12.5 17.3126Z" fill="#0F9D58"/>
<path d="M7.93488 14.7139L4.56348 18.0853C4.8284 18.4293 5.11688 18.7588 5.42902 19.071C7.31777 20.9597 9.82898 21.9999 12.5001 21.9999V17.3124C10.5616 17.3124 8.8627 16.2687 7.93488 14.7139Z" fill="#31AA52"/>
<path d="M22.5 12C22.5 11.3916 22.4449 10.7821 22.3363 10.1884L22.2483 9.70801H12.5V14.3955H17.2442C16.7835 15.312 16.0752 16.0596 15.2175 16.5689L18.5853 19.9367C18.9294 19.6718 19.2589 19.3833 19.5711 19.0711C21.4598 17.1823 22.5 14.6711 22.5 12Z" fill="#3C79E6"/>
<path d="M16.2565 8.24348L16.6708 8.65777L19.9854 5.34324L19.5711 4.92895C17.6823 3.0402 15.1711 2 12.5 2L10.1562 4.34375L12.5 6.6875C13.919 6.6875 15.2531 7.24008 16.2565 8.24348Z" fill="#CF2D48"/>
<path d="M12.5001 6.6875V2C9.82902 2 7.31781 3.0402 5.42902 4.92891C5.11688 5.24105 4.8284 5.57055 4.56348 5.91465L7.93488 9.28605C8.86273 7.73125 10.5617 6.6875 12.5001 6.6875Z" fill="#EB4132"/>
</svg>
