<svg width="43" height="43" viewBox="0 0 43 43" fill="none" xmlns="http://www.w3.org/2000/svg">
<path fill-rule="evenodd" clip-rule="evenodd" d="M21 4C21.9129 4 22.683 3.38833 22.9227 2.55246C32.5876 3.26792 40.2407 11.2133 40.4935 21H40H39V22V24V25H40H42H43V24V22V21H42H41.4939C41.2404 10.6699 33.1544 2.28264 22.9496 1.55173C22.7461 0.66299 21.9505 0 21 0C19.8954 0 19 0.895431 19 2C19 3.10457 19.8954 4 21 4ZM1.50613 22H1H0V21V19V18H1H3H4V19V21V22H3H2.50645C2.75075 31.457 9.90526 39.1947 19.1077 40.3508C19.3773 39.5649 20.1227 39 21 39C22.1046 39 23 39.8954 23 41C23 42.1046 22.1046 43 21 43C20.0145 43 19.1955 42.2872 19.0304 41.349C9.31165 40.1522 1.75109 31.9834 1.50613 22ZM21 9.5C14.6487 9.5 9.5 14.6487 9.5 21C9.5 27.3513 14.6487 32.5 21 32.5C27.3513 32.5 32.5 27.3513 32.5 21C32.5 14.6487 27.3513 9.5 21 9.5ZM6.5 21C6.5 12.9919 12.9919 6.5 21 6.5C29.0081 6.5 35.5 12.9919 35.5 21C35.5 24.2077 34.4584 27.1722 32.6949 29.5736L40.0607 36.9393C40.6464 37.5251 40.6464 38.4749 40.0607 39.0607C39.4749 39.6464 38.5251 39.6464 37.9393 39.0607L30.6771 31.7985C28.1106 34.1001 24.7188 35.5 21 35.5C12.9919 35.5 6.5 29.0081 6.5 21ZM21.5 23C23.9853 23 26 20.9853 26 18.5C26 16.0147 23.9853 14 21.5 14C19.0147 14 17 16.0147 17 18.5C17 20.9853 19.0147 23 21.5 23ZM26.6401 25.5093C27.0986 25.8048 27.1741 26.4349 26.7872 26.8194C25.4312 28.1672 23.5629 29 21.5 29C19.4371 29 17.5688 28.1672 16.2128 26.8194C15.8259 26.4349 15.9014 25.8048 16.3599 25.5093C17.8416 24.5542 19.6061 24 21.5 24C23.3939 24 25.1584 24.5542 26.6401 25.5093ZM42 22H40V24H42V22ZM1 19H3V21H1V19Z" fill="#6A34D8"/>
</svg>
