<svg width="38" height="38" viewBox="0 0 38 38" fill="none" xmlns="http://www.w3.org/2000/svg">
<mask id="path-1-inside-1_1_663" fill="white">
<path fill-rule="evenodd" clip-rule="evenodd" d="M5.9001 5.5C5.9001 2.46243 8.36254 0 11.4001 0H32.4001C35.4377 0 37.9001 2.46243 37.9001 5.5C37.9001 8.53757 35.4377 11 32.4001 11H18.1294L18.1091 11.0353L17.2634 12.5H32.4001C35.1615 12.5 37.4001 14.7386 37.4001 17.5C37.4001 20.2614 35.1615 22.5 32.4001 22.5H27.5617C27.4959 22.7204 27.4036 22.9366 27.2836 23.1444L22.2836 31.8047C22.2552 31.854 22.2256 31.9021 22.1948 31.9491C22.1426 32.0457 22.0889 32.142 22.0336 32.2377C18.8579 37.7381 11.8246 39.6226 6.32429 36.447C2.21387 34.0738 0.122714 29.5464 0.653625 25.1142L0.653551 25.0905L0.65355 14.1906C0.653551 12.1279 2.32567 10.4558 4.38834 10.4558L4.38833 12.4558C3.43024 12.4558 2.65355 13.2325 2.65355 14.1906L2.65355 25.0905V25.0905L2.65359 25.1018L2.65437 25.2274L2.63943 25.3521C2.20033 29.0178 3.93143 32.7561 7.32429 34.7149C11.8681 37.3383 17.6782 35.7815 20.3015 31.2377C20.3474 31.1582 20.392 31.0785 20.4352 30.9984L20.4751 30.9246L20.521 30.8543L20.5327 30.8361C20.5391 30.8259 20.5454 30.8154 20.5516 30.8047L25.5516 22.1444C25.8277 21.6662 25.6638 21.0546 25.1855 20.7784C24.9361 20.6344 24.654 20.6091 24.395 20.6876L21.3114 21.6218L21.8425 18.4438C21.9098 18.0409 21.7242 17.6253 21.3554 17.4124C21.0559 17.2395 20.7038 17.237 20.4085 17.3835L17.7137 18.72L17.5238 15.718C17.503 15.3891 17.3249 15.0854 17.0253 14.9124C16.921 14.8522 16.8143 14.8142 16.7083 14.7945L13.9278 14.2774L15.3419 11.8282L18.6772 6.0512C19.0915 5.33376 18.8456 4.41637 18.1282 4.00216C17.4108 3.58794 16.4934 3.83375 16.0792 4.5512L12.4001 10.9235V11H12.3559L9.85517 15.3315L6.12313 21.7956L6.12312 14.3315L6.12312 14.1906C6.12312 13.2325 5.34643 12.4558 4.38834 12.4558L4.38834 10.4558C5.54739 10.4558 6.58312 10.9837 7.26815 11.8123C7.80222 12.4583 8.12312 13.2869 8.12312 14.1906L8.12312 14.3315L8.20448 14.1906L9.59466 11.7827L10.1314 10.853C7.70548 10.2802 5.9001 8.10093 5.9001 5.5ZM32.4001 10H18.7068L20.4093 7.0512C21.3758 5.37717 20.8022 3.23661 19.1282 2.27011C17.4542 1.30361 15.3136 1.87717 14.3471 3.5512L10.659 9.93926C8.52632 9.58586 6.9001 7.73284 6.9001 5.5C6.9001 3.01472 8.91482 1 11.4001 1H32.4001C34.8854 1 36.9001 3.01472 36.9001 5.5C36.9001 7.98528 34.8854 10 32.4001 10Z"/>
</mask>
<path fill-rule="evenodd" clip-rule="evenodd" d="M5.9001 5.5C5.9001 2.46243 8.36254 0 11.4001 0H32.4001C35.4377 0 37.9001 2.46243 37.9001 5.5C37.9001 8.53757 35.4377 11 32.4001 11H18.1294L18.1091 11.0353L17.2634 12.5H32.4001C35.1615 12.5 37.4001 14.7386 37.4001 17.5C37.4001 20.2614 35.1615 22.5 32.4001 22.5H27.5617C27.4959 22.7204 27.4036 22.9366 27.2836 23.1444L22.2836 31.8047C22.2552 31.854 22.2256 31.9021 22.1948 31.9491C22.1426 32.0457 22.0889 32.142 22.0336 32.2377C18.8579 37.7381 11.8246 39.6226 6.32429 36.447C2.21387 34.0738 0.122714 29.5464 0.653625 25.1142L0.653551 25.0905L0.65355 14.1906C0.653551 12.1279 2.32567 10.4558 4.38834 10.4558L4.38833 12.4558C3.43024 12.4558 2.65355 13.2325 2.65355 14.1906L2.65355 25.0905V25.0905L2.65359 25.1018L2.65437 25.2274L2.63943 25.3521C2.20033 29.0178 3.93143 32.7561 7.32429 34.7149C11.8681 37.3383 17.6782 35.7815 20.3015 31.2377C20.3474 31.1582 20.392 31.0785 20.4352 30.9984L20.4751 30.9246L20.521 30.8543L20.5327 30.8361C20.5391 30.8259 20.5454 30.8154 20.5516 30.8047L25.5516 22.1444C25.8277 21.6662 25.6638 21.0546 25.1855 20.7784C24.9361 20.6344 24.654 20.6091 24.395 20.6876L21.3114 21.6218L21.8425 18.4438C21.9098 18.0409 21.7242 17.6253 21.3554 17.4124C21.0559 17.2395 20.7038 17.237 20.4085 17.3835L17.7137 18.72L17.5238 15.718C17.503 15.3891 17.3249 15.0854 17.0253 14.9124C16.921 14.8522 16.8143 14.8142 16.7083 14.7945L13.9278 14.2774L15.3419 11.8282L18.6772 6.0512C19.0915 5.33376 18.8456 4.41637 18.1282 4.00216C17.4108 3.58794 16.4934 3.83375 16.0792 4.5512L12.4001 10.9235V11H12.3559L9.85517 15.3315L6.12313 21.7956L6.12312 14.3315L6.12312 14.1906C6.12312 13.2325 5.34643 12.4558 4.38834 12.4558L4.38834 10.4558C5.54739 10.4558 6.58312 10.9837 7.26815 11.8123C7.80222 12.4583 8.12312 13.2869 8.12312 14.1906L8.12312 14.3315L8.20448 14.1906L9.59466 11.7827L10.1314 10.853C7.70548 10.2802 5.9001 8.10093 5.9001 5.5ZM32.4001 10H18.7068L20.4093 7.0512C21.3758 5.37717 20.8022 3.23661 19.1282 2.27011C17.4542 1.30361 15.3136 1.87717 14.3471 3.5512L10.659 9.93926C8.52632 9.58586 6.9001 7.73284 6.9001 5.5C6.9001 3.01472 8.91482 1 11.4001 1H32.4001C34.8854 1 36.9001 3.01472 36.9001 5.5C36.9001 7.98528 34.8854 10 32.4001 10Z" fill="#6A34D8"/>
<path d="M18.1294 11V10H17.5521L17.2634 10.5L18.1294 11ZM18.1091 11.0353L17.2431 10.5353L17.2431 10.5353L18.1091 11.0353ZM17.2634 12.5L16.3974 12L15.5314 13.5H17.2634V12.5ZM27.5617 22.5V21.5H26.8165L26.6034 22.2141L27.5617 22.5ZM27.2836 23.1444L28.1496 23.6444L28.1496 23.6444L27.2836 23.1444ZM22.2836 31.8047L21.4176 31.3047L21.4176 31.3047L22.2836 31.8047ZM22.1948 31.9491L21.3579 31.4017L21.335 31.4368L21.315 31.4737L22.1948 31.9491ZM22.0336 32.2377L21.1676 31.7377L21.1676 31.7377L22.0336 32.2377ZM6.32429 36.447L6.82428 35.581L6.32429 36.447ZM0.653625 25.1142L1.64653 25.2331L1.65381 25.1723L1.65362 25.1111L0.653625 25.1142ZM0.653551 25.0905H-0.346454L-0.346444 25.0936L0.653551 25.0905ZM0.65355 14.1906H-0.34645H0.65355ZM4.38833 12.4558L4.38833 13.4558L5.38833 13.4558L5.38833 12.4558H4.38833ZM2.65355 14.1906L1.65355 14.1906V14.1906H2.65355ZM2.65355 25.0905H3.65355H2.65355ZM2.65355 25.0905H1.65355L1.65356 25.0936L2.65355 25.0905ZM2.65359 25.1018L1.65359 25.1049L1.65361 25.108L2.65359 25.1018ZM2.65437 25.2274L3.64727 25.3463L3.65474 25.284L3.65435 25.2212L2.65437 25.2274ZM2.63943 25.3521L1.64653 25.2331L1.64653 25.2331L2.63943 25.3521ZM7.32429 34.7149L7.82429 33.8489H7.82428L7.32429 34.7149ZM20.3015 31.2377L19.4355 30.7377L19.4355 30.7377L20.3015 31.2377ZM20.4352 30.9984L21.315 31.4738L21.315 31.4737L20.4352 30.9984ZM20.4751 30.9246L19.6382 30.3772L19.6153 30.4123L19.5953 30.4492L20.4751 30.9246ZM20.521 30.8543L21.358 31.4018L21.3636 31.3929L20.521 30.8543ZM20.5327 30.8361L21.3753 31.3747L21.3808 31.3659L20.5327 30.8361ZM20.5516 30.8047L21.4175 31.3048L21.4176 31.3047L20.5516 30.8047ZM25.5516 22.1444L26.4176 22.6444L25.5516 22.1444ZM25.1855 20.7784L25.6855 19.9124H25.6855L25.1855 20.7784ZM24.395 20.6876L24.685 21.6446L24.685 21.6446L24.395 20.6876ZM21.3114 21.6218L20.325 21.457L20.0595 23.046L21.6013 22.5789L21.3114 21.6218ZM21.8425 18.4438L20.8561 18.279V18.279L21.8425 18.4438ZM21.3554 17.4124L20.8554 18.2784L20.8554 18.2784L21.3554 17.4124ZM20.4085 17.3835L20.8528 18.2794H20.8528L20.4085 17.3835ZM17.7137 18.72L16.7157 18.7831L16.8107 20.2841L18.1581 19.6159L17.7137 18.72ZM17.5238 15.718L18.5218 15.6549V15.6549L17.5238 15.718ZM17.0253 14.9124L17.5253 14.0464L17.0253 14.9124ZM16.7083 14.7945L16.8911 13.8113L16.8911 13.8113L16.7083 14.7945ZM13.9278 14.2774L13.0618 13.7774L12.3547 15.0021L13.745 15.2606L13.9278 14.2774ZM15.3419 11.8282L14.4759 11.3282L15.3419 11.8282ZM18.6772 6.0512L17.8112 5.5512L18.6772 6.0512ZM18.1282 4.00216L17.6282 4.86818V4.86818L18.1282 4.00216ZM16.0792 4.5512L16.9452 5.0512L16.0792 4.5512ZM12.4001 10.9235L11.5341 10.4235L11.4001 10.6556V10.9235H12.4001ZM12.4001 11V12H13.4001V11H12.4001ZM12.3559 11V10H11.7786L11.4899 10.5L12.3559 11ZM9.85517 15.3315L8.98915 14.8315L9.85517 15.3315ZM6.12313 21.7956L5.12313 21.7956L5.12314 25.5276L6.98916 22.2956L6.12313 21.7956ZM6.12312 14.3315L7.12312 14.3315V14.3315L6.12312 14.3315ZM6.12312 14.1906H5.12312V14.1906L6.12312 14.1906ZM4.38834 12.4558L3.38834 12.4558L3.38834 13.4558L4.38834 13.4558L4.38834 12.4558ZM7.26815 11.8123L8.03886 11.1751L8.03886 11.1751L7.26815 11.8123ZM8.12312 14.1906L7.12312 14.1906V14.1906L8.12312 14.1906ZM8.12312 14.3315L7.12312 14.3315L7.12313 18.0635L8.98915 14.8315L8.12312 14.3315ZM8.20448 14.1906L9.0705 14.6906L8.20448 14.1906ZM9.59466 11.7827L10.4607 12.2827L9.59466 11.7827ZM10.1314 10.853L10.9975 11.353L11.6697 10.1887L10.3612 9.87972L10.1314 10.853ZM18.7068 10L17.8408 9.5L16.9747 11H18.7068V10ZM20.4093 7.0512L21.2753 7.5512V7.5512L20.4093 7.0512ZM19.1282 2.27011L18.6282 3.13613L19.1282 2.27011ZM14.3471 3.5512L15.2131 4.0512L14.3471 3.5512ZM10.659 9.93926L10.4955 10.9258L11.1787 11.039L11.525 10.4393L10.659 9.93926ZM11.4001 -1C7.81025 -1 4.9001 1.91015 4.9001 5.5H6.9001C6.9001 3.01472 8.91482 1 11.4001 1V-1ZM32.4001 -1H11.4001V1H32.4001V-1ZM38.9001 5.5C38.9001 1.91015 35.99 -1 32.4001 -1V1C34.8854 1 36.9001 3.01472 36.9001 5.5H38.9001ZM32.4001 12C35.99 12 38.9001 9.08985 38.9001 5.5H36.9001C36.9001 7.98528 34.8854 10 32.4001 10V12ZM18.1294 12H32.4001V10H18.1294V12ZM18.9751 11.5353L18.9955 11.5L17.2634 10.5L17.2431 10.5353L18.9751 11.5353ZM18.1294 13L18.9751 11.5353L17.2431 10.5353L16.3974 12L18.1294 13ZM32.4001 11.5H17.2634V13.5H32.4001V11.5ZM38.4001 17.5C38.4001 14.1863 35.7138 11.5 32.4001 11.5V13.5C34.6092 13.5 36.4001 15.2909 36.4001 17.5H38.4001ZM32.4001 23.5C35.7138 23.5 38.4001 20.8137 38.4001 17.5H36.4001C36.4001 19.7091 34.6092 21.5 32.4001 21.5V23.5ZM27.5617 23.5H32.4001V21.5H27.5617V23.5ZM28.1496 23.6444C28.3089 23.3686 28.432 23.0804 28.5199 22.7859L26.6034 22.2141C26.5598 22.3603 26.4983 22.5046 26.4176 22.6444L28.1496 23.6444ZM23.1496 32.3047L28.1496 23.6444L26.4176 22.6444L21.4176 31.3047L23.1496 32.3047ZM23.0317 32.4965C23.0726 32.434 23.1119 32.37 23.1497 32.3047L21.4176 31.3047C21.3984 31.3379 21.3785 31.3702 21.3579 31.4017L23.0317 32.4965ZM22.8996 32.7377C22.9596 32.6338 23.0179 32.5294 23.0746 32.4245L21.315 31.4737C21.2673 31.5621 21.2181 31.6501 21.1676 31.7377L22.8996 32.7377ZM5.82429 37.313C11.8029 40.7648 19.4478 38.7163 22.8996 32.7377L21.1676 31.7377C18.2681 36.7598 11.8464 38.4804 6.82428 35.581L5.82429 37.313ZM-0.339277 24.9953C-0.916091 29.8106 1.35509 34.7327 5.82429 37.313L6.82428 35.581C3.07265 33.4149 1.16152 29.2821 1.64653 25.2331L-0.339277 24.9953ZM-0.346444 25.0936L-0.34637 25.1173L1.65362 25.1111L1.65355 25.0874L-0.346444 25.0936ZM-0.34645 14.1906L-0.346449 25.0905H1.65355L1.65355 14.1906H-0.34645ZM4.38834 9.45577C1.77338 9.45577 -0.346449 11.5756 -0.34645 14.1906H1.65355C1.65355 12.6802 2.87796 11.4558 4.38833 11.4558L4.38834 9.45577ZM5.38833 12.4558L5.38834 10.4558H3.38834L3.38833 12.4558H5.38833ZM3.65355 14.1906C3.65355 13.7847 3.98253 13.4558 4.38833 13.4558L4.38834 11.4558C2.87796 11.4558 1.65355 12.6802 1.65355 14.1906L3.65355 14.1906ZM3.65355 25.0905L3.65355 14.1906H1.65355L1.65355 25.0905H3.65355ZM3.65355 25.0905V25.0905H1.65355V25.0905H3.65355ZM3.65358 25.0987L3.65355 25.0874L1.65356 25.0936L1.65359 25.1049L3.65358 25.0987ZM3.65435 25.2212L3.65357 25.0956L1.65361 25.108L1.65439 25.2336L3.65435 25.2212ZM3.63233 25.471L3.64727 25.3463L1.66147 25.1084L1.64653 25.2331L3.63233 25.471ZM7.82428 33.8489C4.78984 32.097 3.23918 28.7531 3.63233 25.471L1.64653 25.2331C1.16147 29.2825 3.07302 33.4152 6.82429 35.581L7.82428 33.8489ZM19.4355 30.7377C17.0883 34.8032 11.8898 36.1961 7.82429 33.8489L6.82429 35.581C11.8464 38.4804 18.2681 36.7598 21.1676 31.7377L19.4355 30.7377ZM19.5554 30.523C19.5167 30.5948 19.4767 30.6664 19.4355 30.7377L21.1675 31.7377C21.2181 31.6501 21.2673 31.5621 21.315 31.4738L19.5554 30.523ZM19.5953 30.4492L19.5554 30.523L21.315 31.4737L21.3549 31.3999L19.5953 30.4492ZM19.6842 30.3069L19.6382 30.3772L21.312 31.472L21.3579 31.4017L19.6842 30.3069ZM19.6901 30.2975L19.6785 30.3158L21.3636 31.3929L21.3753 31.3747L19.6901 30.2975ZM19.6856 30.3046C19.6852 30.3054 19.6848 30.306 19.6845 30.3064L21.3808 31.3659C21.3934 31.3458 21.4056 31.3254 21.4175 31.3048L19.6856 30.3046ZM24.6855 21.6444L19.6855 30.3047L21.4176 31.3047L26.4176 22.6444L24.6855 21.6444ZM24.6855 21.6444L26.4176 22.6444C26.9699 21.6879 26.6421 20.4647 25.6855 19.9124L24.6855 21.6444ZM24.685 21.6446L24.6855 21.6444L25.6855 19.9124C25.1882 19.6253 24.6191 19.5748 24.1051 19.7305L24.685 21.6446ZM21.6013 22.5789L24.685 21.6446L24.1051 19.7305L21.0214 20.6648L21.6013 22.5789ZM20.8561 18.279L20.325 21.457L22.2977 21.7867L22.8288 18.6087L20.8561 18.279ZM20.8554 18.2784L20.8561 18.279L22.8288 18.6087C22.9634 17.8035 22.5934 16.9724 21.8554 16.5464L20.8554 18.2784ZM20.8528 18.2794C20.8566 18.2775 20.8579 18.2779 20.8563 18.2779C20.8555 18.2779 20.8545 18.2777 20.8538 18.2775C20.8529 18.2773 20.8534 18.2772 20.8554 18.2784L21.8554 16.5464C21.2562 16.2004 20.5492 16.1975 19.9641 16.4876L20.8528 18.2794ZM18.1581 19.6159L20.8528 18.2794L19.9642 16.4876L17.2694 17.8241L18.1581 19.6159ZM16.5258 15.7812L16.7157 18.7831L18.7117 18.6569L18.5218 15.6549L16.5258 15.7812ZM16.5253 15.7784C16.5274 15.7796 16.5276 15.78 16.5269 15.7794C16.5264 15.7788 16.5258 15.7781 16.5254 15.7774C16.5245 15.7761 16.5255 15.7769 16.5258 15.7812L18.5218 15.6549C18.4806 15.0032 18.1245 14.3923 17.5253 14.0464L16.5253 15.7784ZM16.5255 15.7776L16.5253 15.7784L17.5253 14.0464C17.3214 13.9286 17.1072 13.8515 16.8911 13.8113L16.5255 15.7776ZM13.745 15.2606L16.5255 15.7776L16.8911 13.8113L14.1106 13.2943L13.745 15.2606ZM14.4759 11.3282L13.0618 13.7774L14.7938 14.7774L16.2079 12.3282L14.4759 11.3282ZM17.8112 5.5512L14.4759 11.3282L16.2079 12.3282L19.5433 6.5512L17.8112 5.5512ZM17.6282 4.86818C17.8673 5.00625 17.9493 5.31205 17.8112 5.5512L19.5433 6.5512C20.2336 5.35546 19.8239 3.82649 18.6282 3.13613L17.6282 4.86818ZM16.9452 5.0512C17.0833 4.81205 17.3891 4.73011 17.6282 4.86818L18.6282 3.13613C17.4325 2.44578 15.9035 2.85546 15.2131 4.0512L16.9452 5.0512ZM13.2661 11.4235L16.9452 5.0512L15.2131 4.0512L11.5341 10.4235L13.2661 11.4235ZM13.4001 11V10.9235H11.4001V11H13.4001ZM12.3559 12H12.4001V10H12.3559V12ZM10.7212 15.8315L13.222 11.5L11.4899 10.5L8.98915 14.8315L10.7212 15.8315ZM6.98916 22.2956L10.7212 15.8315L8.98915 14.8315L5.25711 21.2956L6.98916 22.2956ZM5.12312 14.3315L5.12313 21.7956L7.12313 21.7955L7.12312 14.3315L5.12312 14.3315ZM5.12312 14.1906L5.12312 14.3315L7.12312 14.3315L7.12312 14.1906L5.12312 14.1906ZM4.38834 13.4558C4.79415 13.4558 5.12312 13.7847 5.12312 14.1906H7.12312C7.12312 12.6802 5.89872 11.4558 4.38834 11.4558L4.38834 13.4558ZM3.38834 10.4558L3.38834 12.4558L5.38834 12.4558L5.38834 10.4558L3.38834 10.4558ZM8.03886 11.1751C7.172 10.1266 5.85808 9.45577 4.38833 9.45577L4.38834 11.4558C5.23669 11.4558 5.99424 11.8409 6.49745 12.4495L8.03886 11.1751ZM9.12312 14.1906C9.12312 13.0459 8.71565 11.9937 8.03886 11.1751L6.49745 12.4495C6.88878 12.9228 7.12312 13.528 7.12312 14.1906L9.12312 14.1906ZM9.12312 14.3315L9.12312 14.1906L7.12312 14.1906L7.12312 14.3315L9.12312 14.3315ZM7.33845 13.6906L7.2571 13.8315L8.98915 14.8315L9.0705 14.6906L7.33845 13.6906ZM8.72863 11.2827L7.33845 13.6906L9.0705 14.6906L10.4607 12.2827L8.72863 11.2827ZM9.26541 10.353L8.72863 11.2827L10.4607 12.2827L10.9975 11.353L9.26541 10.353ZM4.9001 5.5C4.9001 8.57512 7.03457 11.1493 9.90165 11.8262L10.3612 9.87972C8.3764 9.41109 6.9001 7.62673 6.9001 5.5H4.9001ZM18.7068 11H32.4001V9H18.7068V11ZM19.5433 6.5512L17.8408 9.5L19.5728 10.5L21.2753 7.5512L19.5433 6.5512ZM18.6282 3.13613C19.8239 3.82649 20.2336 5.35547 19.5433 6.5512L21.2753 7.5512C22.518 5.39888 21.7805 2.64672 19.6282 1.40408L18.6282 3.13613ZM15.2131 4.0512C15.9035 2.85546 17.4325 2.44578 18.6282 3.13613L19.6282 1.40408C17.4759 0.161441 14.7237 0.898877 13.4811 3.0512L15.2131 4.0512ZM11.525 10.4393L15.2131 4.0512L13.4811 3.0512L9.79294 9.43926L11.525 10.4393ZM5.9001 5.5C5.9001 8.23001 7.88814 10.4937 10.4955 10.9258L10.8224 8.95271C9.1645 8.67797 7.9001 7.23567 7.9001 5.5H5.9001ZM11.4001 0C8.36253 0 5.9001 2.46243 5.9001 5.5H7.9001C7.9001 3.567 9.4671 2 11.4001 2V0ZM32.4001 0H11.4001V2H32.4001V0ZM37.9001 5.5C37.9001 2.46243 35.4377 0 32.4001 0V2C34.3331 2 35.9001 3.567 35.9001 5.5H37.9001ZM32.4001 11C35.4377 11 37.9001 8.53757 37.9001 5.5H35.9001C35.9001 7.433 34.3331 9 32.4001 9V11Z" fill="#6A34D8" mask="url(#path-1-inside-1_1_663)"/>
</svg>
