<svg width="37" height="36" viewBox="0 0 37 36" fill="none" xmlns="http://www.w3.org/2000/svg">
<path fill-rule="evenodd" clip-rule="evenodd" d="M36.0958 7.84886L32.4358 0L27.4685 7.09406L30.5824 7.3665C28.535 17.9715 19.2029 25.981 8 25.981V27.981C20.2495 27.981 30.4413 19.171 32.585 7.5417L36.0958 7.84886ZM13.9216 15.4405L10.1637 14.6657L11.5973 13.2322L13.9713 13.8081L13.4037 11.4258L14.8372 9.9922L15.5954 13.7667L19.5398 14.5539L18.1021 15.9916L15.5416 15.3784L16.1506 17.943L14.7171 19.3766L13.9216 15.4405ZM18.2554 8.09876C18.6255 7.72863 19.0246 7.47037 19.4528 7.32398C19.8837 7.17483 20.3187 7.15411 20.7579 7.26183C21.1971 7.36956 21.6169 7.62367 22.0174 8.02418C22.4538 8.4606 22.7397 8.92878 22.8751 9.42873C23.0104 9.92315 22.9828 10.4341 22.7922 10.9617C22.6044 11.4865 22.2439 12.0155 21.7108 12.5486C21.3932 12.8662 21.0659 13.1383 20.7289 13.3648C20.3974 13.5913 20.0715 13.7542 19.7511 13.8537L18.6448 12.7474C18.9653 12.648 19.3105 12.4906 19.6806 12.2751C20.0508 12.0541 20.3657 11.8138 20.6253 11.5542C20.8794 11.3001 21.0603 11.0529 21.1681 10.8126C21.273 10.5695 21.2993 10.3333 21.2468 10.1041C21.1943 9.86929 21.0576 9.64141 20.8366 9.42044C20.541 9.12489 20.2151 8.99784 19.8588 9.03927C19.5025 9.0807 19.1186 9.30719 18.707 9.71875C18.5496 9.87619 18.4004 10.0557 18.2595 10.2574C18.1214 10.4562 18.0109 10.6275 17.9281 10.7711L17.145 11.0073L14.2862 7.69273L17.5718 4.40717L18.6573 5.49268L16.4945 7.65544L17.5718 8.9564C17.6463 8.84316 17.7292 8.72162 17.8203 8.5918C17.9115 8.46198 18.0565 8.29763 18.2554 8.09876ZM2 5.98097V25.481C2 30.1754 5.80558 33.981 10.5 33.981H30V33.481C30 34.8617 31.1193 35.981 32.5 35.981C33.8807 35.981 35 34.8617 35 33.481C35 32.1003 33.8807 30.981 32.5 30.981C31.1193 30.981 30 32.1003 30 33.481V32.981H10.5C6.35786 32.981 3 29.6231 3 25.481V5.98097H2.5C3.88071 5.98097 5 4.86168 5 3.48097C5 2.10026 3.88071 0.980969 2.5 0.980969C1.11929 0.980969 0 2.10026 0 3.48097C0 4.86168 1.11929 5.98097 2.5 5.98097H2ZM2.5 4.98097C3.32843 4.98097 4 4.3094 4 3.48097C4 2.65254 3.32843 1.98097 2.5 1.98097C1.67157 1.98097 1 2.65254 1 3.48097C1 4.3094 1.67157 4.98097 2.5 4.98097ZM34 33.481C34 34.3094 33.3284 34.981 32.5 34.981C31.6716 34.981 31 34.3094 31 33.481C31 32.6525 31.6716 31.981 32.5 31.981C33.3284 31.981 34 32.6525 34 33.481Z" fill="#6A34D8"/>
</svg>
