<svg width="218" height="48" viewBox="0 0 218 48" fill="none" xmlns="http://www.w3.org/2000/svg">
<g clip-path="url(#clip0_4333_323)">
<path fill-rule="evenodd" clip-rule="evenodd" d="M43.6337 16.4799C44.1343 16.7658 44.5639 17.1608 44.8905 17.6353C45.3062 18.2514 45.2614 18.9376 44.7306 19.3302C44.4274 19.558 44.0746 19.7111 43.7009 19.7771C43.5745 19.7896 43.4547 19.8394 43.3567 19.9201C43.2587 20.0008 43.1871 20.1088 43.1509 20.2304C43.1328 20.274 43.1149 20.3178 43.0971 20.3617L43.097 20.3618C43.0167 20.5589 42.9357 20.758 42.8311 20.9485C42.7788 21.0718 42.7581 21.2061 42.771 21.3393C42.7838 21.4725 42.8298 21.6004 42.9046 21.7114C42.9974 21.8952 43.0917 22.0786 43.1861 22.262L43.1861 22.2621C43.5375 22.9453 43.8898 23.6301 44.1646 24.3447C44.6388 25.5408 45.0215 26.7711 45.3094 28.025V28.3442C45.3116 30.5168 44.4583 32.6032 42.9334 34.1535C43.1031 33.3128 43.1301 32.4496 43.0134 31.5999C42.9971 31.6417 42.9821 31.6772 42.9686 31.7089C42.9451 31.7644 42.9264 31.8086 42.9142 31.8553C42.802 32.2286 42.6918 32.6053 42.5812 32.9831C42.4081 33.5745 42.2342 34.1686 42.0508 34.7568C42.022 34.8461 41.9933 34.9323 41.9613 35.0217C40.5245 36.0901 38.7804 36.6667 36.9887 36.6655C36.621 36.6655 36.2309 36.6655 35.8247 36.6336C37.3373 34.5365 38.5972 32.3852 39.1376 29.8859L38.9394 30.2124C37.6357 32.3613 36.3345 34.506 34.341 36.1101C32.7037 35.3728 30.7531 34.096 30.1519 33.4257C32.591 31.5811 34.6994 29.3374 36.3876 26.7897C36.1846 26.9632 35.9889 27.1443 35.7934 27.3251L35.7934 27.3251C35.5176 27.5803 35.2424 27.8349 34.9486 28.0665C33.8208 28.9326 32.6824 29.7912 31.5333 30.6424C31.1159 30.9269 30.6764 31.1777 30.219 31.3925C29.7522 31.6351 29.2757 31.8585 28.7896 32.0628C28.7241 32.0831 28.6547 32.088 28.587 32.0769C28.5193 32.0658 28.4551 32.0391 28.3995 31.9989L28.3981 31.9975C27.8326 31.4203 27.2639 30.8398 26.7462 30.221C26.4251 29.8028 26.1293 29.3658 25.8605 28.9124L25.7421 28.5676C25.9418 28.5193 26.1429 28.4747 26.3441 28.4301L26.3441 28.4301C26.8067 28.3276 27.2695 28.2251 27.7152 28.0761C28.5818 27.7856 29.4324 27.4377 30.2734 27.0802C30.9739 26.7784 31.6506 26.4242 32.2976 26.0205C33.0731 25.5227 33.8204 24.9825 34.536 24.4022C35.5829 23.5525 36.48 22.5341 37.1902 21.389L37.6667 20.6262C38.7803 21.2421 40.0633 21.4827 41.3249 21.3124C41.0619 21.2331 40.7987 21.1606 40.5369 21.0884L40.5366 21.0884C39.6397 20.8413 38.7581 20.5985 37.9513 20.0995C37.984 20.038 38.0143 19.98 38.0433 19.9245L38.0434 19.9243C38.1077 19.801 38.1656 19.6902 38.2295 19.5824C38.3004 19.4627 38.3732 19.3524 38.4465 19.2415L38.447 19.2407C38.4693 19.2069 38.4917 19.173 38.5141 19.1387C40.5127 19.9718 41.3697 20.1984 41.8717 20.0612C41.6438 19.9579 41.4107 19.8558 41.1749 19.7525C40.6234 19.511 40.0574 19.2631 39.5086 18.9791C38.865 18.6732 38.3322 18.1759 37.9832 17.5555C37.8499 17.2924 37.7944 16.9968 37.8234 16.7033C37.9001 16.0489 38.4213 15.7457 38.981 15.6053C39.5086 15.5124 40.0444 15.475 40.5798 15.4936L44.2829 4.0665C43.0336 2.77908 41.5377 1.75563 39.8842 1.05703C38.2306 0.358427 36.4531 -0.00104312 34.6576 2.27358e-06H13.4307C9.87176 0.0101087 6.46149 1.42577 3.94494 3.9377C1.42839 6.44964 0.010125 9.85365 0 13.406V34.594C0.010125 38.1464 1.42839 41.5504 3.94494 44.0623C6.46149 46.5742 9.87176 47.9899 13.4307 48H34.6576C38.2165 47.9899 41.6267 46.5742 44.1433 44.0623C46.6598 41.5504 48.0781 38.1464 48.0882 34.594V13.406C48.0892 11.2421 47.56 9.11083 46.5469 7.19777L43.6337 16.4799ZM27.082 34.5078C26.9157 35.0887 26.2826 34.9259 25.7837 34.7919L25.699 34.7688L25.6987 34.7687C24.5568 34.4572 23.4176 34.1465 22.2662 33.8662C20.8431 33.5183 19.4809 33.4034 18.2977 34.6099C17.9779 34.9515 17.2968 35.06 16.766 35.1079C15.4412 35.195 14.1192 34.9003 12.9574 34.2588C11.4736 33.4928 10.0794 33.4736 8.65 34.4695C7.94009 34.9706 7.37089 34.8334 6.89761 34.1152C6.45451 33.492 6.10142 32.8097 5.84874 32.0883C3.97484 25.9024 4.04839 20.3197 7.70665 14.8903C7.81528 14.7284 7.91795 14.5738 8.01673 14.4251C8.69721 13.4004 9.19281 12.6541 10.1785 11.7399C11.7775 10.3811 13.7121 9.47506 15.7811 9.11611C16.3713 9.03614 16.9665 8.99774 17.5622 9.0012C17.8311 9.01266 18.099 9.0393 18.3649 9.081C19.8262 9.20867 22.4804 10.1982 24.0633 11.6569C26.6727 14.0444 27.8591 17.0544 27.3474 20.5336C26.9548 23.5377 25.5775 26.3277 23.4301 28.4687C23.1292 28.7691 22.8282 29.1148 22.5272 29.4604L22.4708 29.5252L22.8865 29.8827C23.1325 30.0895 23.3784 30.295 23.6239 30.5L23.6239 30.5C24.655 31.3611 25.6772 32.2149 26.6535 33.1353C26.8246 33.3166 26.9521 33.5344 27.0264 33.7722C27.1006 34.01 27.1197 34.2615 27.082 34.5078ZM10.8134 15.7814C10.8641 15.831 10.9019 15.8922 10.9236 15.9596C11.0312 16.1942 11.0961 16.446 11.1155 16.7033C11.1368 17.0267 11.1297 17.353 11.1226 17.6793C11.119 17.8425 11.1155 18.0056 11.1155 18.1684H11.0803C11.0643 18.2524 11.0494 18.3365 11.0345 18.4205C11.0046 18.5886 10.9748 18.7568 10.9364 18.9249C10.7084 20.1022 10.258 21.2255 9.60933 22.2349C9.43347 22.492 9.21756 22.7193 8.96978 22.9084C8.90953 22.9711 8.83302 23.0159 8.74877 23.0377C8.66453 23.0596 8.57585 23.0577 8.49264 23.0322C8.40942 23.0067 8.33492 22.9587 8.27745 22.8934C8.21998 22.8281 8.18179 22.7482 8.16714 22.6626C8.06084 22.3387 8.00266 22.0011 7.99445 21.6603C7.99387 20.555 8.18873 19.4583 8.57006 18.4205C8.80728 17.6517 9.17151 16.9278 9.64771 16.2788C9.81512 16.0748 10.0124 15.8973 10.2329 15.7521C10.2883 15.7079 10.3537 15.6777 10.4233 15.6642C10.493 15.6508 10.5649 15.6544 10.6328 15.6748C10.7008 15.6952 10.7628 15.7318 10.8134 15.7814ZM15.8738 15.9843C15.9859 16.0622 16.0807 16.1625 16.152 16.2788C16.3855 16.6284 16.5615 17.0131 16.6732 17.4183C16.8686 18.2661 16.9043 19.1428 16.7788 20.0037C16.7567 20.1166 16.7357 20.2298 16.7147 20.343C16.6626 20.6234 16.6105 20.9041 16.5421 21.1815C16.3302 22.1736 15.9154 23.1114 15.3238 23.9362C15.0723 24.2677 14.7689 24.5566 14.4252 24.7916C13.8528 25.1746 13.274 25.031 12.8647 24.4724C12.6017 24.0907 12.43 23.654 12.3626 23.1956C12.1766 22.0843 12.2224 20.9466 12.4969 19.8537C12.7047 18.7444 13.1641 17.6973 13.84 16.7927C14.0909 16.4823 14.39 16.214 14.7258 15.9979C14.836 15.9174 14.9618 15.8605 15.0952 15.831C15.2285 15.8014 15.3666 15.7998 15.5006 15.8262C15.6346 15.8526 15.7617 15.9064 15.8738 15.9843Z" fill="url(#paint0_linear_4333_323)"/>
<path fill-rule="evenodd" clip-rule="evenodd" d="M60.9289 31.0267C60.4669 30.22 60.2265 29.3058 60.2322 28.3766V19.5048C60.2296 18.8962 60.3334 18.2919 60.539 17.719C60.7363 17.159 61.0335 16.6393 61.4164 16.185C61.8005 15.7276 62.2613 15.3402 62.7783 15.0403C63.5617 14.5876 64.4536 14.3562 65.3587 14.3706H66.2188C66.7811 14.3602 67.3417 14.4345 67.8818 14.591C68.4167 14.7452 68.9231 14.9849 69.3813 15.3007C69.8387 15.6182 70.2358 16.0146 70.5539 16.4712C71.0589 17.223 71.3293 18.1074 71.3309 19.0126C71.3316 19.0723 71.32 19.1316 71.2968 19.1867C71.2736 19.2419 71.2394 19.2917 71.1962 19.3331C71.1505 19.3778 71.0962 19.4127 71.0365 19.4358C70.9769 19.4589 70.9132 19.4698 70.8493 19.4676H68.5555C68.405 19.4729 68.2566 19.4308 68.1312 19.3474C68.0758 19.3098 68.0298 19.2601 67.9965 19.2021C67.9632 19.1441 67.9436 19.0793 67.9391 19.0126C67.9054 18.6463 67.7726 18.2962 67.5549 17.9995C67.3671 17.7668 67.1133 17.5962 66.8267 17.5101C66.475 17.4175 66.1122 17.3741 65.7486 17.3813H65.6425C65.2669 17.3772 64.8966 17.4699 64.5673 17.6503C64.2487 17.8242 63.9817 18.0789 63.7932 18.3887C63.6002 18.7037 63.5007 19.0669 63.5065 19.4361V28.245C63.5023 28.6248 63.6014 28.9987 63.7932 29.3268C63.9875 29.6585 64.2614 29.9368 64.5903 30.1367C64.918 30.3369 65.2956 30.4411 65.6798 30.4372H65.7601C66.1279 30.4395 66.4885 30.3351 66.798 30.1367C67.1143 29.9326 67.3741 29.6524 67.5535 29.3218C67.7329 28.9912 67.826 28.6209 67.8244 28.245V26.9743H66.4253C66.3515 26.9739 66.2787 26.9584 66.2111 26.9289C66.1436 26.8994 66.0828 26.8564 66.0325 26.8026C65.979 26.7528 65.9365 26.6925 65.9073 26.6255C65.8782 26.5586 65.8633 26.4864 65.8633 26.4134V24.4444C65.8649 24.3261 65.9007 24.2108 65.9665 24.1124C66.0284 24.0106 66.114 23.9252 66.216 23.8634C66.3136 23.8045 66.4258 23.7738 66.5399 23.7747H70.7145C70.8276 23.7742 70.9383 23.807 71.0328 23.8692C71.1306 23.9314 71.2114 24.017 71.2679 24.1182C71.3265 24.2169 71.3572 24.3296 71.3567 24.4444V28.3509C71.3631 29.5905 70.9408 30.7944 70.1611 31.7594C69.783 32.2316 69.3262 32.6353 68.8107 32.9528C68.0371 33.4343 67.1419 33.6855 66.2303 33.6768H65.3931C64.7923 33.6781 64.1964 33.5684 63.6355 33.3534C63.074 33.1412 62.5546 32.8311 62.1016 32.4376C61.6327 32.0378 61.2361 31.5605 60.9289 31.0267ZM73.7422 32.6981V15.4009C73.7433 15.2825 73.7792 15.1671 73.8454 15.0689C73.9122 14.9623 74.0024 14.8722 74.1092 14.8056C74.2069 14.7407 74.3216 14.7059 74.4389 14.7054H76.423C76.6144 14.7007 76.7999 14.7717 76.9391 14.9029C77.007 14.9666 77.0607 15.0439 77.0967 15.1297C77.1328 15.2155 77.1504 15.3079 77.1484 15.4009V22.0089L82.2146 21.9832V15.4009C82.2131 15.2834 82.246 15.168 82.3092 15.0689C82.3825 14.9596 82.4808 14.8694 82.5959 14.8056C82.7067 14.739 82.8337 14.7043 82.9629 14.7054H84.8897C85.0189 14.7043 85.1459 14.739 85.2567 14.8056C85.3726 14.8682 85.4712 14.9587 85.5434 15.0689C85.6124 15.1659 85.6495 15.2819 85.6495 15.4009V32.6981C85.6502 32.8265 85.6144 32.9526 85.5462 33.0615C85.4752 33.1727 85.3764 33.2634 85.2595 33.3248C85.1452 33.3871 85.017 33.4196 84.8868 33.4193H82.9658C82.8355 33.42 82.7072 33.3874 82.5931 33.3248C82.4758 33.264 82.3769 33.1731 82.3064 33.0615C82.2433 32.9509 82.2116 32.8253 82.2146 32.6981V25.2572L77.1484 25.2744V32.6981C77.1498 32.8258 77.1161 32.9516 77.0509 33.0615C76.9885 33.1705 76.8985 33.2613 76.79 33.3248C76.678 33.3877 76.5515 33.4203 76.423 33.4193H74.4389C74.3212 33.4182 74.2061 33.3845 74.1063 33.322C73.9981 33.2559 73.9076 33.1646 73.8426 33.0558C73.777 32.948 73.7423 32.8242 73.7422 32.6981ZM87.7568 28.3509C87.7541 29.2741 87.9964 30.1816 88.4592 30.9809C88.7656 31.5036 89.1593 31.9702 89.6233 32.3604C90.0821 32.7518 90.6061 33.0598 91.1716 33.2704C91.7321 33.4835 92.3265 33.5941 92.9262 33.5967H93.8093C94.7105 33.6011 95.5944 33.35 96.3582 32.8726C96.8819 32.5585 97.3474 32.1568 97.7344 31.685C98.1185 31.218 98.4209 30.6897 98.629 30.1224C98.8363 29.5548 98.9411 28.955 98.9386 28.3509L98.9157 19.5334C98.9359 18.6201 98.7059 17.7186 98.2505 16.9262C97.952 16.4146 97.5635 15.9609 97.1037 15.5869C96.1729 14.8239 95.0051 14.4081 93.8007 14.4107H92.9176C92.0113 14.3943 91.1175 14.6238 90.3315 15.0746C89.8114 15.3737 89.3477 15.7611 88.961 16.2194C88.5743 16.6744 88.2723 17.1949 88.0693 17.7562C87.8595 18.3301 87.7537 18.9368 87.7568 19.5477V28.3509ZM94.4114 30.1453C94.0985 30.3431 93.7353 30.4473 93.3649 30.4458L93.2646 30.4372C92.8859 30.44 92.5141 30.3358 92.1923 30.1367C91.8663 29.9379 91.5969 29.659 91.4095 29.3268C91.2199 28.9978 91.121 28.6245 91.1228 28.245V19.4934C91.1181 19.1243 91.2175 18.7613 91.4095 18.4459C91.5992 18.1343 91.8683 17.8785 92.1894 17.7047C92.5184 17.5234 92.8887 17.4297 93.2646 17.4328H93.3448C93.7189 17.4293 94.0875 17.523 94.4143 17.7047C94.736 17.879 95.0038 18.1377 95.1888 18.453C95.3737 18.7683 95.4688 19.128 95.4637 19.4934V28.2536C95.4631 28.6328 95.3643 29.0054 95.1769 29.3354C94.9944 29.6655 94.731 29.9442 94.4114 30.1453ZM101.863 32.1772C101.416 31.6853 101.062 31.116 100.819 30.4973C100.57 29.8738 100.442 29.2083 100.444 28.5369V28.5111C100.442 28.3517 100.483 28.1947 100.561 28.0561C100.637 27.9207 100.745 27.8066 100.877 27.7241C101.004 27.6447 101.151 27.6021 101.301 27.6011H103.205C103.217 27.612 103.232 27.6199 103.248 27.624H103.311H103.366C103.527 27.6899 103.666 27.8001 103.767 27.9416C103.87 28.0721 103.927 28.2333 103.927 28.3995V28.6657C103.927 28.9331 103.983 29.1976 104.094 29.4412C104.202 29.6801 104.36 29.8929 104.558 30.0651C104.756 30.2403 104.991 30.3676 105.246 30.4372C105.433 30.4914 105.626 30.5184 105.82 30.5173H105.9C105.953 30.5204 106.005 30.5204 106.058 30.5173C106.087 30.5194 106.116 30.5124 106.141 30.4973H106.167C106.482 30.4768 106.788 30.3785 107.056 30.2111C107.312 30.0446 107.522 29.8175 107.669 29.55C107.82 29.282 107.899 28.979 107.896 28.6714L107.95 27.3349C107.951 26.9255 107.848 26.5225 107.649 26.1644C107.453 25.844 107.166 25.5897 106.823 25.4346C106.393 25.1942 105.734 25.0626 104.839 25.034L104.332 24.971C103.297 24.8966 102.514 24.5989 101.978 24.0809C101.46 23.5913 101.095 22.9619 100.928 22.2694C100.759 21.5229 100.677 20.7594 100.685 19.9942L100.711 19.0583L100.739 18.6834C100.831 18.091 100.917 17.636 100.992 17.324C101.063 17.0246 101.174 16.7358 101.321 16.4655C101.49 16.1831 101.699 15.9275 101.943 15.7071C102.375 15.2804 102.894 14.9532 103.466 14.7484C104.088 14.5336 104.746 14.4365 105.404 14.4622H106.233C106.85 14.4602 107.462 14.5838 108.03 14.8256C108.598 15.0678 109.113 15.4177 109.547 15.8559C109.99 16.2996 110.335 16.8309 110.559 17.4156C110.796 18.0183 110.916 18.6601 110.915 19.3073V19.3331C110.916 19.4755 110.879 19.6156 110.809 19.7395C110.74 19.8584 110.641 19.9572 110.522 20.0257C110.404 20.0978 110.268 20.1354 110.129 20.1344H108.28C108.09 20.122 107.912 20.0374 107.782 19.8979C107.652 19.7585 107.581 19.5748 107.583 19.3846V19.1957C107.585 18.9448 107.528 18.6969 107.417 18.4717C107.309 18.2462 107.156 18.0454 106.967 17.8821C106.765 17.7151 106.532 17.5896 106.281 17.5129C106.108 17.4584 105.927 17.4314 105.745 17.4328H105.533C105.516 17.4528 105.47 17.4614 105.401 17.4614C105.096 17.4895 104.802 17.5874 104.541 17.7476C104.3 17.8976 104.102 18.1077 103.968 18.3572C103.826 18.6137 103.754 18.9028 103.758 19.1957V20.7497C103.77 21.058 103.891 21.3522 104.099 21.5797C104.341 21.8011 104.638 21.9525 104.96 22.0175C105.458 22.124 105.964 22.1844 106.473 22.1978C108.062 22.3066 109.245 22.796 110.023 23.666C110.801 24.536 111.19 25.7943 111.19 27.4408C111.19 27.9073 111.167 28.3566 111.124 28.7859C111.074 29.2464 110.978 29.7008 110.837 30.1424C110.426 31.3981 109.556 32.4528 108.4 33.0959C107.709 33.4752 106.932 33.6723 106.144 33.6682H105.312C104.671 33.6709 104.036 33.5393 103.449 33.2819C102.853 33.0204 102.314 32.6451 101.863 32.1772ZM115.347 17.7276V32.6981C115.346 32.824 115.38 32.9477 115.445 33.0558C115.509 33.1652 115.6 33.2567 115.709 33.322C115.808 33.3845 115.923 33.4182 116.041 33.4193H118.025C118.118 33.422 118.211 33.4048 118.297 33.3687C118.383 33.3327 118.461 33.2787 118.524 33.2104C118.589 33.1423 118.64 33.0619 118.674 32.974C118.708 32.8861 118.725 32.7923 118.722 32.6981V17.7276H121.016C121.151 17.729 121.284 17.6986 121.406 17.6389C121.519 17.5854 121.618 17.5048 121.692 17.4042C121.759 17.3118 121.796 17.2006 121.795 17.0865V15.2921C121.796 15.178 121.759 15.0668 121.692 14.9744C121.618 14.8739 121.519 14.7933 121.406 14.7398C121.284 14.68 121.151 14.6496 121.016 14.6511H113.203C112.997 14.6387 112.793 14.7007 112.629 14.8256C112.559 14.8813 112.504 14.9525 112.466 15.0334C112.429 15.1144 112.411 15.203 112.414 15.2921V17.0865C112.408 17.1735 112.422 17.2608 112.455 17.3416C112.487 17.4225 112.538 17.4948 112.603 17.553C112.767 17.6779 112.971 17.7399 113.177 17.7276H115.347ZM127.464 32.7925V15.481C127.464 15.3503 127.498 15.222 127.564 15.109C127.628 14.9928 127.722 14.8962 127.837 14.8296C127.952 14.763 128.082 14.729 128.215 14.7312H133.47C134.223 14.7254 134.967 14.9001 135.638 15.2406C136.242 15.54 136.748 16.0047 137.097 16.5803C137.446 17.156 137.625 17.8189 137.611 18.4917V21.7428C137.61 22.1701 137.526 22.5932 137.361 22.9877C137.195 23.3916 136.959 23.7635 136.664 24.0867C136.366 24.4132 136.015 24.6879 135.627 24.8994L135.652 24.9538L138.333 32.8183C138.359 32.8777 138.369 32.9428 138.362 33.0072C138.362 33.0631 138.349 33.1182 138.324 33.168C138.298 33.2178 138.261 33.2608 138.216 33.2933C138.111 33.3729 137.983 33.4143 137.851 33.4107H135.518C135.397 33.4087 135.278 33.3794 135.171 33.3248C135.055 33.2684 134.948 33.1941 134.855 33.1045C134.77 33.0247 134.703 32.9269 134.66 32.8183L132.484 26.1301C132.28 26.0113 132.049 25.9472 131.813 25.944C131.676 25.9395 131.54 25.966 131.415 26.0215C131.29 26.077 131.179 26.1601 131.091 26.2646V32.7925C131.091 32.8769 131.073 32.9602 131.036 33.0362C130.999 33.1121 130.945 33.1785 130.879 33.2304C130.735 33.3506 130.553 33.4138 130.365 33.4078H128.221C128.026 33.4155 127.836 33.3524 127.685 33.2304C127.616 33.1797 127.56 33.1137 127.522 33.0377C127.484 32.9616 127.464 32.8777 127.464 32.7925ZM132.665 22.7044C132.929 22.7071 133.189 22.641 133.419 22.5126C133.644 22.3895 133.832 22.21 133.967 21.9918C134.099 21.7808 134.168 21.5367 134.167 21.2878V18.8523C134.17 18.5906 134.1 18.3333 133.967 18.1082C133.835 17.8854 133.646 17.7016 133.419 17.5759C133.189 17.4452 132.929 17.378 132.665 17.3813H131.191C131.145 17.3814 131.099 17.3917 131.057 17.4115C131.014 17.4313 130.977 17.4601 130.947 17.4958C130.882 17.5654 130.845 17.6575 130.844 17.7533V22.2493C130.843 22.3092 130.855 22.3685 130.878 22.4236C130.901 22.4788 130.936 22.5286 130.979 22.5699C131.02 22.6124 131.07 22.6462 131.124 22.6693C131.179 22.6924 131.238 22.7043 131.297 22.7044H132.665ZM140.601 15.3465V32.6322C140.6 32.7255 140.618 32.8179 140.652 32.9044C140.687 32.9908 140.739 33.0695 140.805 33.1359C140.872 33.2042 140.953 33.2577 141.043 33.2931C141.132 33.3286 141.228 33.3452 141.324 33.342H149.231C149.36 33.3434 149.486 33.3108 149.598 33.2475C149.707 33.1841 149.797 33.0933 149.859 32.9843C149.924 32.8761 149.957 32.7524 149.957 32.6265V30.7806C149.959 30.6875 149.942 30.5949 149.906 30.509C149.87 30.4231 149.816 30.3459 149.747 30.2826C149.608 30.1511 149.423 30.0801 149.231 30.0852H143.818V25.22H147.918C148.008 25.2259 148.097 25.2126 148.182 25.181C148.266 25.1495 148.342 25.1003 148.406 25.0369C148.469 24.9735 148.518 24.8973 148.55 24.8134C148.582 24.7295 148.595 24.6398 148.589 24.5503V22.6786C148.593 22.5898 148.579 22.501 148.547 22.4179C148.516 22.3347 148.467 22.2588 148.405 22.195C148.341 22.1326 148.265 22.084 148.181 22.052C148.097 22.02 148.008 22.0054 147.918 22.0089H143.818V17.9165H149.231C149.36 17.9169 149.487 17.8833 149.598 17.8192C149.707 17.7557 149.797 17.6649 149.859 17.5559C149.925 17.446 149.958 17.3202 149.957 17.1924V15.3465C149.959 15.2534 149.942 15.1608 149.906 15.0749C149.87 14.989 149.816 14.9118 149.747 14.8485C149.608 14.717 149.423 14.646 149.231 14.6511H141.324C141.228 14.6474 141.133 14.6627 141.043 14.6961C140.954 14.7295 140.872 14.7804 140.802 14.8457C140.735 14.9107 140.683 14.9888 140.649 15.075C140.614 15.1612 140.598 15.2537 140.601 15.3465ZM152.156 32.6981V15.3465C152.158 15.2209 152.197 15.0986 152.267 14.9945C152.33 14.8887 152.42 14.8018 152.528 14.7426C152.623 14.6863 152.731 14.6548 152.841 14.6511H155.909C156.04 14.6507 156.17 14.6749 156.293 14.7226C156.409 14.7658 156.515 14.832 156.605 14.9172C156.681 14.9877 156.728 15.0834 156.737 15.1862L159.177 23.0535L161.617 15.1862C161.666 15.0237 161.778 14.887 161.927 14.8056C162.091 14.703 162.281 14.6494 162.474 14.6511H165.531C165.623 14.6483 165.715 14.6644 165.801 14.6983C165.887 14.7323 165.964 14.7834 166.03 14.8486C166.095 14.9137 166.146 14.9915 166.18 15.0771C166.214 15.1627 166.23 15.2544 166.228 15.3465V32.6981C166.23 32.7901 166.214 32.8818 166.18 32.9675C166.146 33.0531 166.095 33.1309 166.03 33.196C165.964 33.2611 165.887 33.3123 165.801 33.3462C165.715 33.3802 165.623 33.3963 165.531 33.3935H163.601C163.511 33.3969 163.422 33.3814 163.338 33.3478C163.255 33.3143 163.179 33.2636 163.117 33.1989C162.991 33.0629 162.924 32.883 162.93 32.6981V21.5797L160.895 28.1191C160.875 28.1762 160.844 28.2288 160.803 28.2736C160.74 28.3429 160.672 28.4071 160.599 28.4654L160.465 28.5455C160.33 28.6093 160.184 28.6463 160.035 28.6542H158.314C158.165 28.6463 158.019 28.6093 157.884 28.5455L157.752 28.4654C157.633 28.3757 157.54 28.2562 157.483 28.1191L155.447 21.5883V32.6981C155.446 32.8152 155.413 32.9299 155.353 33.0301C155.291 33.1352 155.206 33.2244 155.103 33.2905C155.007 33.3573 154.893 33.3932 154.776 33.3935H152.841C152.722 33.3924 152.607 33.3566 152.508 33.2905C152.402 33.2249 152.311 33.1358 152.245 33.0301C152.183 32.9303 152.153 32.815 152.156 32.6981ZM168.401 28.3595C168.398 29.2793 168.638 30.1835 169.098 30.9809C169.402 31.5042 169.795 31.9708 170.259 32.3604C170.718 32.7513 171.242 33.0593 171.807 33.2704C172.37 33.4886 172.969 33.603 173.573 33.6082H174.459C175.359 33.6121 176.242 33.3611 177.005 32.8841C177.525 32.5682 177.987 32.1667 178.373 31.6964C178.755 31.2286 179.056 30.7005 179.264 30.1338C179.474 29.5666 179.58 28.9668 179.58 28.3623L179.551 19.5334C179.574 18.6197 179.346 17.7172 178.892 16.9234C178.594 16.411 178.206 15.9571 177.745 15.584C176.813 14.8198 175.643 14.4039 174.436 14.4078H173.553C172.648 14.3938 171.757 14.6242 170.973 15.0746C170.453 15.3746 169.99 15.7619 169.602 16.2194C169.215 16.6744 168.913 17.1949 168.71 17.7562C168.503 18.3307 168.398 18.9371 168.401 19.5477V28.3595ZM175.047 30.1453C174.735 30.3431 174.373 30.4474 174.003 30.4458L173.906 30.4372C173.527 30.4389 173.156 30.3348 172.833 30.1367C172.509 29.9359 172.24 29.6575 172.051 29.3268C171.861 28.9978 171.762 28.6245 171.764 28.245V19.4934C171.759 19.1243 171.859 18.7613 172.051 18.4459C172.238 18.1364 172.503 17.8809 172.819 17.7047C173.148 17.5234 173.518 17.4297 173.894 17.4328H173.975C174.349 17.429 174.717 17.5227 175.044 17.7047C175.366 17.879 175.634 18.1377 175.818 18.453C176.003 18.7683 176.099 19.128 176.093 19.4934V28.2536C176.093 28.6313 175.996 29.0028 175.813 29.3335C175.63 29.6642 175.367 29.9434 175.047 30.1453ZM184.325 32.7124L180.813 15.3722C180.807 15.3295 180.807 15.2862 180.813 15.2435C180.811 15.1657 180.827 15.0885 180.859 15.0176C180.891 14.9468 180.939 14.8841 180.999 14.8342C181.135 14.7248 181.306 14.6661 181.481 14.6682H183.76C183.846 14.6674 183.932 14.6879 184.008 14.7278C184.085 14.7678 184.15 14.8259 184.199 14.8972C184.332 15.1011 184.412 15.3354 184.431 15.5783L186.762 28.9318C186.782 28.9914 186.822 29.0427 186.874 29.0778C186.925 29.1215 186.99 29.1458 187.057 29.1465C187.155 29.1465 187.218 29.0749 187.247 28.9318L189.523 15.2578C189.546 15.0883 189.621 14.9301 189.738 14.8056C189.876 14.702 190.048 14.6531 190.22 14.6682H192.499C192.682 14.662 192.861 14.7186 193.007 14.8285C193.07 14.8766 193.122 14.939 193.156 15.0106C193.191 15.0822 193.209 15.161 193.207 15.2406C193.213 15.2814 193.213 15.3228 193.207 15.3637L189.658 32.7124C189.637 32.8138 189.596 32.9101 189.537 32.9956C189.479 33.081 189.404 33.1541 189.317 33.2103C189.135 33.3402 188.918 33.4093 188.694 33.4078H185.314C185.163 33.4084 185.014 33.3772 184.875 33.3162C184.738 33.2598 184.614 33.1749 184.511 33.0673C184.414 32.9707 184.349 32.8469 184.325 32.7124ZM194.833 15.3465V32.6322C194.832 32.7273 194.849 32.8217 194.885 32.9097C194.921 32.9977 194.975 33.0776 195.042 33.1445C195.11 33.2129 195.191 33.2665 195.28 33.302C195.369 33.3374 195.465 33.354 195.561 33.3506H203.463C203.591 33.3519 203.716 33.3193 203.827 33.2561C203.937 33.1936 204.028 33.1026 204.091 32.9928C204.155 32.8825 204.189 32.757 204.189 32.6294V30.7835C204.191 30.6905 204.173 30.5981 204.137 30.5123C204.101 30.4265 204.047 30.3492 203.979 30.2855C203.84 30.1543 203.655 30.0833 203.463 30.088H198.05V25.2228H202.15C202.239 25.2269 202.328 25.2127 202.411 25.1812C202.495 25.1497 202.571 25.1016 202.635 25.0397C202.697 24.9754 202.746 24.8991 202.778 24.8155C202.81 24.7319 202.824 24.6426 202.821 24.5532V22.6815C202.826 22.5926 202.812 22.5037 202.78 22.4205C202.749 22.3373 202.7 22.2616 202.637 22.1982C202.575 22.1349 202.5 22.0853 202.417 22.0527C202.334 22.0201 202.245 22.0052 202.156 22.0089H198.05V17.9165H203.469C203.597 17.9169 203.722 17.8833 203.833 17.8192C203.943 17.7566 204.034 17.6657 204.097 17.5559C204.161 17.4455 204.195 17.32 204.194 17.1924V15.3465C204.196 15.2535 204.179 15.1611 204.143 15.0753C204.107 14.9895 204.053 14.9123 203.985 14.8485C203.846 14.7173 203.66 14.6463 203.469 14.6511H195.561C195.465 14.6463 195.368 14.6611 195.278 14.6946C195.187 14.728 195.104 14.7794 195.034 14.8457C194.967 14.9107 194.915 14.9888 194.881 15.075C194.846 15.1612 194.83 15.2537 194.833 15.3465Z" fill="white"/>
</g>
<defs>
<linearGradient id="paint0_linear_4333_323" x1="24.0441" y1="0" x2="24.0441" y2="48" gradientUnits="userSpaceOnUse">
<stop stop-color="#6A48E3"/>
<stop offset="1" stop-color="#DDA1FD"/>
</linearGradient>
<clipPath id="clip0_4333_323">
<rect width="218" height="48" fill="white"/>
</clipPath>
</defs>
</svg>
