<svg width="81" height="80" viewBox="0 0 81 80" fill="none" xmlns="http://www.w3.org/2000/svg">
<path fill-rule="evenodd" clip-rule="evenodd" d="M60.3334 9.5H20.3334C14.5344 9.5 9.83337 14.201 9.83337 20V60C9.83337 63.1097 11.1852 65.9037 13.3333 67.8263V57.0001H27.0531L28.9082 59.0763C29.1888 59.3903 29.3245 59.8079 29.2821 60.2268L28.2493 70.4272C28.2468 70.4516 28.2449 70.4759 28.2436 70.5H33.6391L39.7285 67.8166C40.1138 67.6468 40.5529 67.6468 40.9382 67.8166L47.0276 70.5H52.4231C52.4218 70.4759 52.4199 70.4516 52.4174 70.4272L51.3846 60.2268C51.3422 59.8079 51.4779 59.3903 51.7585 59.0763L53.6136 57.0001H67.3333V67.8264C69.4815 65.9038 70.8334 63.1098 70.8334 60V20C70.8334 14.201 66.1324 9.5 60.3334 9.5ZM8.33337 60C8.33337 64.015 10.3052 67.5695 13.3333 69.7479V69.748C15.3036 71.1653 17.721 72.0001 20.3333 72.0001H29.26L29.2599 72H32.6191V72.0001H48.0476V72H51.4068L51.4066 72.0001H60.3333C62.9457 72.0001 65.3631 71.1653 67.3333 69.748V69.7479C70.3615 67.5696 72.3334 64.0151 72.3334 60V20C72.3334 13.3726 66.9608 8 60.3334 8H20.3334C13.706 8 8.33337 13.3726 8.33337 20V60ZM63.3334 20H41.3334V23H63.3334V20ZM41.3334 25H52.3334V28H41.3334V25ZM39.0372 37.2254C39.0849 37.1436 39.1384 37.0684 39.1967 37.0001H32.6191V46.8563L32.8984 46.7958C33.31 46.7067 33.6652 46.4486 33.8771 46.0847L39.0372 37.2254ZM41.6295 37.2254C41.5818 37.1436 41.5283 37.0684 41.47 37.0001H48.0476V46.8563L47.7683 46.7958C47.3567 46.7067 47.0015 46.4486 46.7896 46.0847L41.6295 37.2254ZM58.5896 51.4311L56.2942 54.0001H67.3333V37.0001H50.9405V47.4827L57.7885 48.9657C58.9121 49.209 59.3556 50.5738 58.5896 51.4311ZM13.3333 54.0001H24.3725L22.0771 51.4311C21.3111 50.5738 21.7546 49.209 22.8782 48.9657L29.7262 47.4827V37.0001H13.3333V54.0001ZM26.3334 34C31.8562 34 36.3334 29.5228 36.3334 24C36.3334 18.4772 31.8562 14 26.3334 14C20.8105 14 16.3334 18.4772 16.3334 24C16.3334 29.5228 20.8105 34 26.3334 34Z" fill="#111111"/>
</svg>
