<svg width="80" height="80" viewBox="0 0 80 80" fill="none" xmlns="http://www.w3.org/2000/svg">
<path fill-rule="evenodd" clip-rule="evenodd" d="M40.3273 7.7663C40.2184 7.76655 40.1093 7.76668 40 7.76668C39.8907 7.76668 39.7816 7.76655 39.6727 7.7663C39.5434 7.766 39.4076 7.81483 39.2955 7.91488C31.5699 14.8084 21.3761 19 10.2069 19C10.1441 19 10.0813 18.9998 10.0185 18.9996C9.85633 18.9989 9.71943 19.0588 9.63096 19.1376C9.54909 19.2106 9.51465 19.2906 9.51206 19.3782C9.50405 19.6495 9.5 19.9273 9.5 20.2117C9.5 29.139 10.5844 36.5466 12.3389 42.6915C13.4727 42.2452 14.7077 42.0001 16 42.0001H64C65.2923 42.0001 66.5273 42.2452 67.6611 42.6915C69.4156 36.5466 70.5 29.139 70.5 20.2117C70.5 19.9273 70.4959 19.6495 70.4879 19.3782C70.4854 19.2906 70.4509 19.2106 70.369 19.1376C70.2806 19.0588 70.1437 18.9989 69.9815 18.9996C69.9187 18.9998 69.8559 19 69.7931 19C58.6239 19 48.4301 14.8084 40.7045 7.91488C40.5924 7.81483 40.4566 7.766 40.3273 7.7663ZM69.0307 43.3557C70.8683 37.0187 72 29.3902 72 20.2117C72 19.913 71.9957 19.6205 71.9873 19.334C71.956 18.2744 71.0352 17.4951 69.9752 17.4996L69.8782 17.4999L69.7931 17.5C59.0063 17.5 49.1646 13.4535 41.7032 6.79566C41.3232 6.45662 40.8331 6.26513 40.3239 6.2663C40.216 6.26655 40.1081 6.26668 40 6.26668C39.8919 6.26668 39.784 6.26655 39.6761 6.2663C39.1669 6.26513 38.6768 6.45662 38.2968 6.79566C30.8354 13.4535 20.9937 17.5 10.2069 17.5C10.1462 17.5 10.0855 17.4998 10.0248 17.4996C8.96481 17.4951 8.04399 18.2744 8.01271 19.334C8.00426 19.6205 8 19.913 8 20.2117C8 29.3902 9.13166 37.0187 10.9693 43.3557C7.99725 45.0891 6 48.3113 6 52.0001C6 57.5229 10.4772 62.0001 16 62.0001H20.7039C28.7528 71.36 37.965 73.5951 39.7076 73.9456C39.9098 73.9863 40.0902 73.9863 40.2924 73.9456C42.035 73.5951 51.2472 71.36 59.2961 62.0001H64C69.5228 62.0001 74 57.5229 74 52.0001C74 48.3113 72.0027 45.0891 69.0307 43.3557ZM57.2892 62.0001H22.7108C23.0452 62.3639 23.3808 62.7151 23.7168 63.0542C30.9546 70.3584 38.5587 72.1841 40 72.4744C41.4412 72.1841 49.0454 70.3585 56.2832 63.0542C56.6192 62.7151 56.9548 62.3639 57.2892 62.0001ZM52.5607 24.0607L39.5607 37.0607L38.5 38.1214L37.4393 37.0607L29.9393 29.5607L32.0607 27.4394L38.5 33.8787L50.4393 21.9394L52.5607 24.0607ZM19.9278 48.7418C20.1206 48.4107 20.599 48.4107 20.7919 48.7418L21.542 50.0298C21.6127 50.1511 21.7311 50.2371 21.8683 50.2668L23.325 50.5823C23.6996 50.6634 23.8474 51.1183 23.5921 51.4041L22.5989 52.5156C22.5054 52.6202 22.4602 52.7594 22.4743 52.8991L22.6245 54.382C22.6631 54.7633 22.2761 55.0445 21.9254 54.8899L20.5614 54.2889C20.433 54.2323 20.2866 54.2323 20.1582 54.2889L18.7942 54.8899C18.4436 55.0445 18.0565 54.7633 18.0951 54.382L18.2453 52.8991C18.2594 52.7594 18.2142 52.6202 18.1207 52.5156L17.1276 51.4041C16.8722 51.1183 17.0201 50.6634 17.3946 50.5823L18.8513 50.2668C18.9885 50.2371 19.1069 50.1511 19.1776 50.0298L19.9278 48.7418ZM29.9278 48.7418C30.1206 48.4107 30.599 48.4107 30.7919 48.7418L31.542 50.0298C31.6127 50.1511 31.7311 50.2371 31.8683 50.2668L33.325 50.5823C33.6996 50.6634 33.8474 51.1183 33.5921 51.4041L32.5989 52.5156C32.5054 52.6202 32.4602 52.7594 32.4743 52.8991L32.6245 54.382C32.6631 54.7633 32.2761 55.0445 31.9254 54.8899L30.5614 54.2889C30.433 54.2323 30.2866 54.2323 30.1582 54.2889L28.7942 54.8899C28.4436 55.0445 28.0565 54.7633 28.0951 54.382L28.2453 52.8991C28.2594 52.7594 28.2142 52.6202 28.1207 52.5156L27.1276 51.4041C26.8722 51.1183 27.0201 50.6634 27.3946 50.5823L28.8513 50.2668C28.9885 50.2371 29.1069 50.1511 29.1776 50.0298L29.9278 48.7418ZM40.7919 48.7418C40.599 48.4107 40.1206 48.4107 39.9278 48.7418L39.1776 50.0298C39.1069 50.1511 38.9885 50.2371 38.8513 50.2668L37.3946 50.5823C37.0201 50.6634 36.8722 51.1183 37.1276 51.4041L38.1207 52.5156C38.2142 52.6202 38.2594 52.7594 38.2453 52.8991L38.0951 54.382C38.0565 54.7633 38.4436 55.0445 38.7942 54.8899L40.1582 54.2889C40.2866 54.2323 40.433 54.2323 40.5614 54.2889L41.9254 54.8899C42.2761 55.0445 42.6631 54.7633 42.6245 54.382L42.4743 52.8991C42.4602 52.7594 42.5054 52.6202 42.5989 52.5156L43.5921 51.4041C43.8474 51.1183 43.6996 50.6634 43.325 50.5823L41.8683 50.2668C41.7311 50.2371 41.6127 50.1511 41.542 50.0298L40.7919 48.7418ZM49.9278 48.7418C50.1206 48.4107 50.599 48.4107 50.7919 48.7418L51.542 50.0298C51.6127 50.1511 51.7311 50.2371 51.8683 50.2668L53.325 50.5823C53.6996 50.6634 53.8474 51.1183 53.5921 51.4041L52.5989 52.5156C52.5054 52.6202 52.4602 52.7594 52.4743 52.8991L52.6245 54.382C52.6631 54.7633 52.2761 55.0445 51.9254 54.8899L50.5614 54.2889C50.433 54.2323 50.2866 54.2323 50.1582 54.2889L48.7942 54.8899C48.4436 55.0445 48.0565 54.7633 48.0951 54.382L48.2453 52.8991C48.2594 52.7594 48.2142 52.6202 48.1207 52.5156L47.1276 51.4041C46.8722 51.1183 47.0201 50.6634 47.3946 50.5823L48.8513 50.2668C48.9885 50.2371 49.1069 50.1511 49.1776 50.0298L49.9278 48.7418ZM60.7919 48.7418C60.599 48.4107 60.1206 48.4107 59.9278 48.7418L59.1776 50.0298C59.1069 50.1511 58.9885 50.2371 58.8513 50.2668L57.3946 50.5823C57.0201 50.6634 56.8722 51.1183 57.1276 51.4041L58.1207 52.5156C58.2142 52.6202 58.2594 52.7594 58.2453 52.8991L58.0951 54.382C58.0565 54.7633 58.4436 55.0445 58.7942 54.8899L60.1582 54.2889C60.2866 54.2323 60.433 54.2323 60.5614 54.2889L61.9254 54.8899C62.2761 55.0445 62.6631 54.7633 62.6245 54.382L62.4743 52.8991C62.4602 52.7594 62.5054 52.6202 62.5989 52.5156L63.5921 51.4041C63.8474 51.1183 63.6996 50.6634 63.325 50.5823L61.8683 50.2668C61.7311 50.2371 61.6127 50.1511 61.542 50.0298L60.7919 48.7418Z" fill="#111111"/>
</svg>
