<svg width="81" height="80" viewBox="0 0 81 80" fill="none" xmlns="http://www.w3.org/2000/svg">
<path fill-rule="evenodd" clip-rule="evenodd" d="M5.91667 35.5C5.91667 18.7934 19.4601 5.25 36.1667 5.25C52.8733 5.25 66.4167 18.7934 66.4167 35.5C66.4167 37.0168 66.305 38.5074 66.0896 39.9643C63.5511 38.7068 60.6914 38 57.6667 38C52.9854 38 48.6996 39.693 45.388 42.5H26.9191C26.6569 42.5 26.3968 42.5507 26.1561 42.6545C23.8072 43.6673 21.6341 45.0101 19.695 46.6244C18.8293 47.3452 18.8293 48.6549 19.695 49.3756C24.2885 53.1998 30.1954 55.5 36.6396 55.5C37.3437 55.5 38.0413 55.4725 38.7315 55.4186C38.6886 55.9401 38.6667 56.4675 38.6667 57C38.6667 60.0248 39.3735 62.8844 40.631 65.4229C39.1741 65.6384 37.6834 65.75 36.1667 65.75C19.4601 65.75 5.91667 52.2066 5.91667 35.5ZM41.3985 66.821C39.6964 67.1032 37.9487 67.25 36.1667 67.25C18.6316 67.25 4.41667 53.035 4.41667 35.5C4.41667 17.965 18.6316 3.75 36.1667 3.75C53.7017 3.75 67.9167 17.965 67.9167 35.5C67.9167 37.282 67.7699 39.0298 67.4877 40.7318C72.9893 44.0602 76.6667 50.1007 76.6667 57C76.6667 67.4934 68.1601 76 57.6667 76C50.7673 76 44.7269 72.3226 41.3985 66.821ZM48.1397 27C48.1397 33.3513 42.991 38.5 36.6397 38.5C30.2884 38.5 25.1397 33.3513 25.1397 27C25.1397 20.6487 30.2884 15.5 36.6397 15.5C42.991 15.5 48.1397 20.6487 48.1397 27ZM58.1212 47C54.0878 47 52.8938 50.2449 51.5532 53.8883L51.5531 53.8884C51.4064 54.2872 51.2579 54.6907 51.1038 55.0952C50.6658 56.2446 50.0545 57.1511 49.4687 58.0199C48.5354 59.4041 47.6667 60.6923 47.6667 62.7143C47.6667 65.0952 48.5892 67 50.8485 67C51.1725 67 51.4876 66.8792 51.7899 66.6895C53.0788 65.8804 54.5906 65.5756 55.937 66.2848C56.7088 66.6912 57.504 67 58.1212 67C58.6865 67 59.4754 66.6632 60.2273 66.2625C61.3393 65.6699 62.5476 65.8748 63.5587 66.6266C63.8563 66.8479 64.1663 67 64.4849 67C66.7442 67 67.6667 65.0952 67.6667 62.7143C67.6667 60.7609 66.8857 59.4346 66.0709 58.051C65.5418 57.1524 64.9984 56.2297 64.6455 55.0952C64.519 54.6886 64.3983 54.2836 64.2792 53.884C63.187 50.2194 62.2276 47 58.1212 47ZM55.6667 58C56.7712 58 57.6667 56.6569 57.6667 55C57.6667 53.3431 56.7712 52 55.6667 52C54.5621 52 53.6667 53.3431 53.6667 55C53.6667 56.6569 54.5621 58 55.6667 58ZM62.6667 55C62.6667 56.6569 61.7712 58 60.6667 58C59.5621 58 58.6667 56.6569 58.6667 55C58.6667 53.3431 59.5621 52 60.6667 52C61.7712 52 62.6667 53.3431 62.6667 55Z" fill="#111111"/>
</svg>
