<svg width="48" height="48" viewBox="0 0 48 48" fill="none" xmlns="http://www.w3.org/2000/svg">
<g clip-path="url(#clip0_4346_317)">
<path fill-rule="evenodd" clip-rule="evenodd" d="M43.6337 16.4799C44.1343 16.7658 44.5639 17.1608 44.8905 17.6353C45.3062 18.2514 45.2614 18.9376 44.7306 19.3302C44.4274 19.558 44.0746 19.7111 43.7009 19.7771C43.5745 19.7896 43.4547 19.8394 43.3567 19.9201C43.2587 20.0008 43.1871 20.1088 43.1509 20.2304C43.1328 20.274 43.1149 20.3178 43.0971 20.3617L43.097 20.3618C43.0167 20.5589 42.9357 20.758 42.8311 20.9485C42.7788 21.0718 42.7581 21.2061 42.771 21.3393C42.7838 21.4725 42.8298 21.6004 42.9046 21.7114C42.9974 21.8952 43.0917 22.0786 43.1861 22.262L43.1861 22.2621C43.5375 22.9453 43.8898 23.6301 44.1646 24.3447C44.6388 25.5408 45.0215 26.7711 45.3094 28.025V28.3442C45.3116 30.5168 44.4583 32.6032 42.9334 34.1535C43.1031 33.3128 43.1301 32.4496 43.0134 31.5999C42.9971 31.6417 42.9821 31.6772 42.9686 31.7089C42.9451 31.7644 42.9264 31.8086 42.9142 31.8553C42.802 32.2286 42.6918 32.6053 42.5812 32.9831C42.4081 33.5745 42.2342 34.1686 42.0508 34.7568C42.022 34.8461 41.9933 34.9323 41.9613 35.0217C40.5245 36.0901 38.7804 36.6667 36.9887 36.6655C36.621 36.6655 36.2309 36.6655 35.8247 36.6336C37.3373 34.5365 38.5972 32.3852 39.1376 29.8859L38.9394 30.2124C37.6357 32.3613 36.3345 34.506 34.341 36.1101C32.7037 35.3728 30.7531 34.096 30.1519 33.4257C32.591 31.5811 34.6994 29.3374 36.3876 26.7897C36.1846 26.9632 35.9889 27.1443 35.7934 27.3251L35.7934 27.3251C35.5176 27.5803 35.2424 27.8349 34.9486 28.0665C33.8208 28.9326 32.6824 29.7912 31.5333 30.6424C31.1159 30.9269 30.6764 31.1777 30.219 31.3925C29.7522 31.6351 29.2757 31.8585 28.7896 32.0628C28.7241 32.0831 28.6547 32.088 28.587 32.0769C28.5193 32.0658 28.4551 32.0391 28.3995 31.9989L28.3981 31.9975C27.8326 31.4203 27.2639 30.8398 26.7462 30.221C26.4251 29.8028 26.1293 29.3658 25.8605 28.9124L25.7421 28.5676C25.9418 28.5193 26.1429 28.4747 26.3441 28.4301L26.3441 28.4301C26.8067 28.3276 27.2695 28.2251 27.7152 28.0761C28.5818 27.7856 29.4324 27.4377 30.2734 27.0802C30.9739 26.7784 31.6506 26.4242 32.2976 26.0205C33.0731 25.5227 33.8204 24.9825 34.536 24.4022C35.5829 23.5525 36.48 22.5341 37.1902 21.389L37.6667 20.6262C38.7803 21.2421 40.0633 21.4827 41.3249 21.3124C41.0619 21.2331 40.7987 21.1606 40.5369 21.0884L40.5366 21.0884C39.6397 20.8413 38.7581 20.5985 37.9513 20.0995C37.984 20.038 38.0143 19.98 38.0433 19.9245L38.0434 19.9243C38.1077 19.801 38.1656 19.6902 38.2295 19.5824C38.3004 19.4627 38.3732 19.3524 38.4465 19.2415L38.447 19.2407C38.4693 19.2069 38.4917 19.173 38.5141 19.1387C40.5127 19.9718 41.3697 20.1984 41.8717 20.0612C41.6438 19.9579 41.4107 19.8558 41.1749 19.7525C40.6234 19.511 40.0574 19.2631 39.5086 18.9791C38.865 18.6732 38.3322 18.1759 37.9832 17.5555C37.8499 17.2924 37.7944 16.9968 37.8234 16.7033C37.9001 16.0489 38.4213 15.7457 38.981 15.6053C39.5086 15.5124 40.0444 15.475 40.5798 15.4936L44.2829 4.0665C43.0336 2.77908 41.5377 1.75563 39.8842 1.05703C38.2306 0.358427 36.4531 -0.00104312 34.6576 2.27358e-06H13.4307C9.87176 0.0101087 6.46149 1.42577 3.94494 3.9377C1.42839 6.44964 0.010125 9.85365 0 13.406V34.594C0.010125 38.1464 1.42839 41.5504 3.94494 44.0623C6.46149 46.5742 9.87176 47.9899 13.4307 48H34.6576C38.2165 47.9899 41.6267 46.5742 44.1433 44.0623C46.6598 41.5504 48.0781 38.1464 48.0882 34.594V13.406C48.0892 11.2421 47.56 9.11083 46.5469 7.19777L43.6337 16.4799ZM27.082 34.5078C26.9157 35.0887 26.2826 34.9259 25.7837 34.7919L25.699 34.7688L25.6987 34.7687C24.5568 34.4572 23.4176 34.1465 22.2662 33.8662C20.8431 33.5183 19.4809 33.4034 18.2977 34.6099C17.9779 34.9515 17.2968 35.06 16.766 35.1079C15.4412 35.195 14.1192 34.9003 12.9574 34.2588C11.4736 33.4928 10.0794 33.4736 8.65 34.4695C7.94009 34.9706 7.37089 34.8334 6.89761 34.1152C6.45451 33.492 6.10142 32.8097 5.84874 32.0883C3.97484 25.9024 4.04839 20.3197 7.70665 14.8903C7.81528 14.7284 7.91795 14.5738 8.01673 14.4251C8.69721 13.4004 9.19281 12.6541 10.1785 11.7399C11.7775 10.3811 13.7121 9.47506 15.7811 9.11611C16.3713 9.03614 16.9665 8.99774 17.5622 9.0012C17.8311 9.01266 18.099 9.0393 18.3649 9.081C19.8262 9.20867 22.4804 10.1982 24.0633 11.6569C26.6727 14.0444 27.8591 17.0544 27.3474 20.5336C26.9548 23.5377 25.5775 26.3277 23.4301 28.4687C23.1292 28.7691 22.8282 29.1148 22.5272 29.4604L22.4708 29.5252L22.8865 29.8827C23.1325 30.0895 23.3784 30.295 23.6239 30.5L23.6239 30.5C24.655 31.3611 25.6772 32.2149 26.6535 33.1353C26.8246 33.3166 26.9521 33.5344 27.0264 33.7722C27.1006 34.01 27.1197 34.2615 27.082 34.5078ZM10.8134 15.7814C10.8641 15.831 10.9019 15.8922 10.9236 15.9596C11.0312 16.1942 11.0961 16.446 11.1155 16.7033C11.1368 17.0267 11.1297 17.353 11.1226 17.6793C11.119 17.8425 11.1155 18.0056 11.1155 18.1684H11.0803C11.0643 18.2524 11.0494 18.3365 11.0345 18.4205C11.0046 18.5886 10.9748 18.7568 10.9364 18.9249C10.7084 20.1022 10.258 21.2255 9.60933 22.2349C9.43347 22.492 9.21756 22.7193 8.96978 22.9084C8.90953 22.9711 8.83302 23.0159 8.74877 23.0377C8.66453 23.0596 8.57585 23.0577 8.49264 23.0322C8.40942 23.0067 8.33492 22.9587 8.27745 22.8934C8.21998 22.8281 8.18179 22.7482 8.16714 22.6626C8.06084 22.3387 8.00266 22.0011 7.99445 21.6603C7.99387 20.555 8.18873 19.4583 8.57006 18.4205C8.80728 17.6517 9.17151 16.9278 9.64771 16.2788C9.81512 16.0748 10.0124 15.8973 10.2329 15.7521C10.2883 15.7079 10.3537 15.6777 10.4233 15.6642C10.493 15.6508 10.5649 15.6544 10.6328 15.6748C10.7008 15.6952 10.7628 15.7318 10.8134 15.7814ZM15.8738 15.9843C15.9859 16.0622 16.0807 16.1625 16.152 16.2788C16.3855 16.6284 16.5615 17.0131 16.6732 17.4183C16.8686 18.2661 16.9043 19.1428 16.7788 20.0037C16.7567 20.1166 16.7357 20.2298 16.7147 20.343C16.6626 20.6234 16.6105 20.9041 16.5421 21.1815C16.3302 22.1736 15.9154 23.1114 15.3238 23.9362C15.0723 24.2677 14.7689 24.5566 14.4252 24.7916C13.8528 25.1746 13.274 25.031 12.8647 24.4724C12.6017 24.0907 12.43 23.654 12.3626 23.1956C12.1766 22.0843 12.2224 20.9466 12.4969 19.8537C12.7047 18.7444 13.1641 17.6973 13.84 16.7927C14.0909 16.4823 14.39 16.214 14.7258 15.9979C14.836 15.9174 14.9618 15.8605 15.0952 15.831C15.2285 15.8014 15.3666 15.7998 15.5006 15.8262C15.6346 15.8526 15.7617 15.9064 15.8738 15.9843Z" fill="url(#paint0_linear_4346_317)"/>
</g>
<defs>
<linearGradient id="paint0_linear_4346_317" x1="24.0441" y1="0" x2="24.0441" y2="48" gradientUnits="userSpaceOnUse">
<stop stop-color="#DDA1FD"/>
<stop offset="1" stop-color="#6A48E3"/>
</linearGradient>
<clipPath id="clip0_4346_317">
<rect width="48" height="48" fill="white"/>
</clipPath>
</defs>
</svg>
