<svg width="218" height="48" viewBox="0 0 218 48" fill="none" xmlns="http://www.w3.org/2000/svg">
<g clip-path="url(#clip0_4338_945)">
<path fill-rule="evenodd" clip-rule="evenodd" d="M43.6337 16.4799C44.1343 16.7658 44.5639 17.1608 44.8905 17.6353C45.3062 18.2514 45.2614 18.9376 44.7306 19.3302C44.4274 19.558 44.0746 19.7111 43.7009 19.7771C43.5745 19.7896 43.4547 19.8394 43.3567 19.9201C43.2587 20.0008 43.1871 20.1088 43.1509 20.2304C43.1328 20.274 43.1149 20.3178 43.0971 20.3617L43.097 20.3618C43.0167 20.5589 42.9357 20.758 42.8311 20.9485C42.7788 21.0718 42.7581 21.2061 42.771 21.3393C42.7838 21.4725 42.8298 21.6004 42.9046 21.7114C42.9974 21.8952 43.0917 22.0786 43.1861 22.262L43.1861 22.2621C43.5375 22.9453 43.8898 23.6301 44.1646 24.3447C44.6388 25.5408 45.0215 26.7711 45.3094 28.025V28.3442C45.3116 30.5168 44.4583 32.6032 42.9334 34.1535C43.1031 33.3128 43.1301 32.4496 43.0134 31.5999C42.9971 31.6417 42.9821 31.6772 42.9686 31.7089C42.9451 31.7644 42.9264 31.8086 42.9142 31.8553C42.802 32.2286 42.6918 32.6053 42.5812 32.9831C42.4081 33.5745 42.2342 34.1686 42.0508 34.7568C42.022 34.8461 41.9933 34.9323 41.9613 35.0217C40.5245 36.0901 38.7804 36.6667 36.9887 36.6655C36.621 36.6655 36.2309 36.6655 35.8247 36.6336C37.3373 34.5365 38.5972 32.3852 39.1376 29.8859L38.9394 30.2124C37.6357 32.3613 36.3345 34.506 34.341 36.1101C32.7037 35.3728 30.7531 34.096 30.1519 33.4257C32.591 31.5811 34.6994 29.3374 36.3876 26.7897C36.1846 26.9632 35.9889 27.1443 35.7934 27.3251L35.7934 27.3251C35.5176 27.5803 35.2424 27.8349 34.9486 28.0665C33.8208 28.9326 32.6824 29.7912 31.5333 30.6424C31.1159 30.9269 30.6764 31.1777 30.219 31.3925C29.7522 31.6351 29.2757 31.8585 28.7896 32.0628C28.7241 32.0831 28.6547 32.088 28.587 32.0769C28.5193 32.0658 28.4551 32.0391 28.3995 31.9989L28.3981 31.9975C27.8326 31.4203 27.2639 30.8398 26.7462 30.221C26.4251 29.8028 26.1293 29.3658 25.8605 28.9124L25.7421 28.5676C25.9418 28.5193 26.1429 28.4747 26.3441 28.4301L26.3441 28.4301C26.8067 28.3276 27.2695 28.2251 27.7152 28.0761C28.5818 27.7856 29.4324 27.4377 30.2734 27.0802C30.9739 26.7784 31.6506 26.4242 32.2976 26.0205C33.0731 25.5227 33.8204 24.9825 34.536 24.4022C35.5829 23.5525 36.48 22.5341 37.1902 21.389L37.6667 20.6262C38.7803 21.2421 40.0633 21.4827 41.3249 21.3124C41.0619 21.2331 40.7987 21.1606 40.5369 21.0884L40.5366 21.0884C39.6397 20.8413 38.7581 20.5985 37.9513 20.0995C37.984 20.038 38.0143 19.98 38.0433 19.9245L38.0434 19.9243C38.1077 19.801 38.1656 19.6902 38.2295 19.5824C38.3004 19.4627 38.3732 19.3524 38.4465 19.2415L38.447 19.2407C38.4693 19.2069 38.4917 19.173 38.5141 19.1387C40.5127 19.9718 41.3697 20.1984 41.8717 20.0612C41.6438 19.9579 41.4107 19.8558 41.1749 19.7525C40.6234 19.511 40.0574 19.2631 39.5086 18.9791C38.865 18.6732 38.3322 18.1759 37.9832 17.5555C37.8499 17.2924 37.7944 16.9968 37.8234 16.7033C37.9001 16.0489 38.4213 15.7457 38.981 15.6053C39.5086 15.5124 40.0444 15.475 40.5798 15.4936L44.2829 4.0665C43.0336 2.77908 41.5377 1.75563 39.8842 1.05703C38.2306 0.358427 36.4531 -0.00104312 34.6576 2.27358e-06H13.4307C9.87176 0.0101087 6.46149 1.42577 3.94494 3.9377C1.42839 6.44964 0.010125 9.85365 0 13.406V34.594C0.010125 38.1464 1.42839 41.5504 3.94494 44.0623C6.46149 46.5742 9.87176 47.9899 13.4307 48H34.6576C38.2165 47.9899 41.6267 46.5742 44.1433 44.0623C46.6598 41.5504 48.0781 38.1464 48.0882 34.594V13.406C48.0892 11.2421 47.56 9.11083 46.5469 7.19777L43.6337 16.4799ZM27.082 34.5078C26.9157 35.0887 26.2826 34.9259 25.7837 34.7919L25.699 34.7688L25.6987 34.7687C24.5568 34.4572 23.4176 34.1465 22.2662 33.8662C20.8431 33.5183 19.4809 33.4034 18.2977 34.6099C17.9779 34.9515 17.2968 35.06 16.766 35.1079C15.4412 35.195 14.1192 34.9003 12.9574 34.2588C11.4736 33.4928 10.0794 33.4736 8.65 34.4695C7.94009 34.9706 7.37089 34.8334 6.89761 34.1152C6.45451 33.492 6.10142 32.8097 5.84874 32.0883C3.97484 25.9024 4.04839 20.3197 7.70665 14.8903C7.81528 14.7284 7.91795 14.5738 8.01673 14.4251C8.69721 13.4004 9.19281 12.6541 10.1785 11.7399C11.7775 10.3811 13.7121 9.47506 15.7811 9.11611C16.3713 9.03614 16.9665 8.99774 17.5622 9.0012C17.8311 9.01266 18.099 9.0393 18.3649 9.081C19.8262 9.20867 22.4804 10.1982 24.0633 11.6569C26.6727 14.0444 27.8591 17.0544 27.3474 20.5336C26.9548 23.5377 25.5775 26.3277 23.4301 28.4687C23.1292 28.7691 22.8282 29.1148 22.5272 29.4604L22.4708 29.5252L22.8865 29.8827C23.1325 30.0895 23.3784 30.295 23.6239 30.5L23.6239 30.5C24.655 31.3611 25.6772 32.2149 26.6535 33.1353C26.8246 33.3166 26.9521 33.5344 27.0264 33.7722C27.1006 34.01 27.1197 34.2615 27.082 34.5078ZM10.8134 15.7814C10.8641 15.831 10.9019 15.8922 10.9236 15.9596C11.0312 16.1942 11.0961 16.446 11.1155 16.7033C11.1368 17.0267 11.1297 17.353 11.1226 17.6793C11.119 17.8425 11.1155 18.0056 11.1155 18.1684H11.0803C11.0643 18.2524 11.0494 18.3365 11.0345 18.4205C11.0046 18.5886 10.9748 18.7568 10.9364 18.9249C10.7084 20.1022 10.258 21.2255 9.60933 22.2349C9.43347 22.492 9.21756 22.7193 8.96978 22.9084C8.90953 22.9711 8.83302 23.0159 8.74877 23.0377C8.66453 23.0596 8.57585 23.0577 8.49264 23.0322C8.40942 23.0067 8.33492 22.9587 8.27745 22.8934C8.21998 22.8281 8.18179 22.7482 8.16714 22.6626C8.06084 22.3387 8.00266 22.0011 7.99445 21.6603C7.99387 20.555 8.18873 19.4583 8.57006 18.4205C8.80728 17.6517 9.17151 16.9278 9.64771 16.2788C9.81512 16.0748 10.0124 15.8973 10.2329 15.7521C10.2883 15.7079 10.3537 15.6777 10.4233 15.6642C10.493 15.6508 10.5649 15.6544 10.6328 15.6748C10.7008 15.6952 10.7628 15.7318 10.8134 15.7814ZM15.8738 15.9843C15.9859 16.0622 16.0807 16.1625 16.152 16.2788C16.3855 16.6284 16.5615 17.0131 16.6732 17.4183C16.8686 18.2661 16.9043 19.1428 16.7788 20.0037C16.7567 20.1166 16.7357 20.2298 16.7147 20.343C16.6626 20.6234 16.6105 20.9041 16.5421 21.1815C16.3302 22.1736 15.9154 23.1114 15.3238 23.9362C15.0723 24.2677 14.7689 24.5566 14.4252 24.7916C13.8528 25.1746 13.274 25.031 12.8647 24.4724C12.6017 24.0907 12.43 23.654 12.3626 23.1956C12.1766 22.0843 12.2224 20.9466 12.4969 19.8537C12.7047 18.7444 13.1641 17.6973 13.84 16.7927C14.0909 16.4823 14.39 16.214 14.7258 15.9979C14.836 15.9174 14.9618 15.8605 15.0952 15.831C15.2285 15.8014 15.3666 15.7998 15.5006 15.8262C15.6346 15.8526 15.7617 15.9064 15.8738 15.9843Z" fill="url(#paint0_linear_4338_945)"/>
<path fill-rule="evenodd" clip-rule="evenodd" d="M60.9289 31.0269C60.4669 30.2202 60.2265 29.306 60.2322 28.3768V19.505C60.2296 18.8964 60.3334 18.2921 60.539 17.7192C60.7363 17.1592 61.0335 16.6395 61.4164 16.1852C61.8005 15.7277 62.2613 15.3404 62.7783 15.0404C63.5617 14.5878 64.4536 14.3563 65.3587 14.3708H66.2188C66.7811 14.3604 67.3417 14.4347 67.8818 14.5911C68.4167 14.7454 68.9231 14.9851 69.3813 15.3009C69.8387 15.6184 70.2358 16.0148 70.5539 16.4714C71.0589 17.2232 71.3293 18.1076 71.3309 19.0127C71.3316 19.0725 71.32 19.1318 71.2968 19.1869C71.2736 19.242 71.2394 19.2919 71.1962 19.3333C71.1505 19.3779 71.0962 19.4129 71.0365 19.436C70.9769 19.4591 70.9132 19.4699 70.8493 19.4678H68.5555C68.405 19.473 68.2566 19.431 68.1312 19.3476C68.0758 19.31 68.0298 19.2603 67.9965 19.2023C67.9632 19.1442 67.9436 19.0794 67.9391 19.0127C67.9054 18.6465 67.7726 18.2963 67.5549 17.9996C67.3671 17.767 67.1133 17.5964 66.8267 17.5102C66.475 17.4176 66.1122 17.3743 65.7486 17.3815H65.6425C65.2669 17.3774 64.8966 17.47 64.5673 17.6505C64.2487 17.8244 63.9817 18.079 63.7932 18.3888C63.6002 18.7038 63.5007 19.0671 63.5065 19.4363V28.2452C63.5023 28.625 63.6014 28.9989 63.7932 29.327C63.9875 29.6587 64.2614 29.937 64.5903 30.1369C64.918 30.3371 65.2956 30.4412 65.6798 30.4374H65.7601C66.1279 30.4397 66.4885 30.3353 66.798 30.1369C67.1143 29.9328 67.3741 29.6526 67.5535 29.322C67.7329 28.9914 67.826 28.6211 67.8244 28.2452V26.9745H66.4253C66.3515 26.974 66.2787 26.9586 66.2111 26.9291C66.1436 26.8995 66.0828 26.8566 66.0325 26.8028C65.979 26.7529 65.9365 26.6927 65.9073 26.6257C65.8782 26.5588 65.8633 26.4865 65.8633 26.4136V24.4446C65.8649 24.3263 65.9007 24.211 65.9665 24.1126C66.0284 24.0108 66.114 23.9254 66.216 23.8636C66.3136 23.8047 66.4258 23.774 66.5399 23.7749H70.7145C70.8276 23.7744 70.9383 23.8072 71.0328 23.8693C71.1306 23.9316 71.2114 24.0172 71.2679 24.1183C71.3265 24.2171 71.3572 24.3298 71.3567 24.4446V28.3511C71.3631 29.5907 70.9408 30.7946 70.1611 31.7596C69.783 32.2318 69.3262 32.6355 68.8107 32.953C68.0371 33.4345 67.1419 33.6856 66.2303 33.677H65.3931C64.7923 33.6783 64.1964 33.5686 63.6355 33.3536C63.074 33.1413 62.5546 32.8313 62.1016 32.4378C61.6327 32.0379 61.2361 31.5607 60.9289 31.0269ZM73.7422 32.6983V15.401C73.7433 15.2827 73.7792 15.1672 73.8454 15.0691C73.9122 14.9624 74.0024 14.8724 74.1092 14.8058C74.2069 14.7409 74.3216 14.706 74.4389 14.7056H76.423C76.6144 14.7009 76.7999 14.7719 76.9391 14.9031C77.007 14.9668 77.0607 15.0441 77.0967 15.1299C77.1328 15.2156 77.1504 15.308 77.1484 15.401V22.0091L82.2146 21.9834V15.401C82.2131 15.2836 82.246 15.1682 82.3092 15.0691C82.3825 14.9598 82.4808 14.8695 82.5959 14.8058C82.7067 14.7392 82.8337 14.7045 82.9629 14.7056H84.8897C85.0189 14.7045 85.1459 14.7392 85.2567 14.8058C85.3726 14.8684 85.4712 14.9589 85.5434 15.0691C85.6124 15.166 85.6495 15.2821 85.6495 15.401V32.6983C85.6502 32.8267 85.6144 32.9528 85.5462 33.0617C85.4752 33.1729 85.3764 33.2636 85.2595 33.325C85.1452 33.3873 85.017 33.4198 84.8868 33.4194H82.9658C82.8355 33.4201 82.7072 33.3876 82.5931 33.325C82.4758 33.2642 82.3769 33.1733 82.3064 33.0617C82.2433 32.9511 82.2116 32.8255 82.2146 32.6983V25.2574L77.1484 25.2745V32.6983C77.1498 32.826 77.1161 32.9517 77.0509 33.0617C76.9885 33.1707 76.8985 33.2615 76.79 33.325C76.678 33.3879 76.5515 33.4204 76.423 33.4194H74.4389C74.3212 33.4183 74.2061 33.3847 74.1063 33.3221C73.9981 33.2561 73.9076 33.1647 73.8426 33.056C73.777 32.9481 73.7423 32.8244 73.7422 32.6983ZM87.7568 28.3511C87.7541 29.2743 87.9964 30.1818 88.4592 30.9811C88.7656 31.5038 89.1593 31.9703 89.6233 32.3605C90.0821 32.7519 90.6061 33.06 91.1716 33.2706C91.7321 33.4837 92.3265 33.5942 92.9262 33.5969H93.8093C94.7105 33.6013 95.5944 33.3502 96.3582 32.8728C96.8819 32.5587 97.3474 32.157 97.7344 31.6851C98.1185 31.2182 98.4209 30.6899 98.629 30.1226C98.8363 29.555 98.9411 28.9552 98.9386 28.3511L98.9157 19.5336C98.9359 18.6203 98.7059 17.7188 98.2505 16.9264C97.952 16.4148 97.5635 15.961 97.1037 15.5871C96.1729 14.8241 95.0051 14.4082 93.8007 14.4108H92.9176C92.0113 14.3945 91.1175 14.624 90.3315 15.0748C89.8114 15.3739 89.3477 15.7613 88.961 16.2195C88.5743 16.6746 88.2723 17.1951 88.0693 17.7564C87.8595 18.3303 87.7537 18.937 87.7568 19.5479V28.3511ZM94.4114 30.1455C94.0985 30.3432 93.7353 30.4475 93.3649 30.446L93.2646 30.4374C92.8859 30.4402 92.5141 30.336 92.1923 30.1369C91.8663 29.938 91.5969 29.6592 91.4095 29.327C91.2199 28.998 91.121 28.6247 91.1228 28.2452V19.4935C91.1181 19.1245 91.2175 18.7615 91.4095 18.4461C91.5992 18.1345 91.8683 17.8787 92.1894 17.7049C92.5184 17.5235 92.8887 17.4299 93.2646 17.433H93.3448C93.7189 17.4295 94.0875 17.5232 94.4143 17.7049C94.736 17.8791 95.0038 18.1379 95.1888 18.4532C95.3737 18.7685 95.4688 19.1282 95.4637 19.4935V28.2538C95.4631 28.633 95.3643 29.0056 95.1769 29.3355C94.9944 29.6657 94.731 29.9444 94.4114 30.1455ZM101.863 32.1774C101.416 31.6855 101.062 31.1162 100.819 30.4975C100.57 29.874 100.442 29.2085 100.444 28.5371V28.5113C100.442 28.3519 100.483 28.1949 100.561 28.0563C100.637 27.9209 100.745 27.8067 100.877 27.7243C101.004 27.6449 101.151 27.6023 101.301 27.6012H103.205C103.217 27.6122 103.232 27.62 103.248 27.6241H103.311H103.366C103.527 27.6901 103.666 27.8002 103.767 27.9418C103.87 28.0722 103.927 28.2335 103.927 28.3997V28.6659C103.927 28.9333 103.983 29.1978 104.094 29.4414C104.202 29.6803 104.36 29.893 104.558 30.0653C104.756 30.2405 104.991 30.3678 105.246 30.4374C105.433 30.4916 105.626 30.5186 105.82 30.5175H105.9C105.953 30.5206 106.005 30.5206 106.058 30.5175C106.087 30.5196 106.116 30.5126 106.141 30.4975H106.167C106.482 30.477 106.788 30.3786 107.056 30.2113C107.312 30.0448 107.522 29.8177 107.669 29.5502C107.82 29.2822 107.899 28.9792 107.896 28.6716L107.95 27.3351C107.951 26.9257 107.848 26.5227 107.649 26.1646C107.453 25.8442 107.166 25.5899 106.823 25.4348C106.393 25.1944 105.734 25.0628 104.839 25.0341L104.332 24.9712C103.297 24.8968 102.514 24.5991 101.978 24.0811C101.46 23.5914 101.095 22.9621 100.928 22.2696C100.759 21.5231 100.677 20.7596 100.685 19.9944L100.711 19.0585L100.739 18.6836C100.831 18.0912 100.917 17.6362 100.992 17.3242C101.063 17.0247 101.174 16.736 101.321 16.4657C101.49 16.1833 101.699 15.9277 101.943 15.7073C102.375 15.2806 102.894 14.9534 103.466 14.7485C104.088 14.5338 104.746 14.4367 105.404 14.4623H106.233C106.85 14.4604 107.462 14.584 108.03 14.8258C108.598 15.068 109.113 15.4179 109.547 15.8561C109.99 16.2998 110.335 16.8311 110.559 17.4158C110.796 18.0185 110.916 18.6602 110.915 19.3075V19.3333C110.916 19.4757 110.879 19.6158 110.809 19.7397C110.74 19.8586 110.641 19.9573 110.522 20.0258C110.404 20.098 110.268 20.1356 110.129 20.1346H108.28C108.09 20.1222 107.912 20.0375 107.782 19.8981C107.652 19.7586 107.581 19.575 107.583 19.3848V19.1959C107.585 18.9449 107.528 18.6971 107.417 18.4718C107.309 18.2464 107.156 18.0456 106.967 17.8823C106.765 17.7153 106.532 17.5898 106.281 17.5131C106.108 17.4586 105.927 17.4316 105.745 17.433H105.533C105.516 17.453 105.47 17.4616 105.401 17.4616C105.096 17.4896 104.802 17.5876 104.541 17.7478C104.3 17.8978 104.102 18.1079 103.968 18.3574C103.826 18.6139 103.754 18.9029 103.758 19.1959V20.7499C103.77 21.0582 103.891 21.3524 104.099 21.5798C104.341 21.8012 104.638 21.9526 104.96 22.0177C105.458 22.1242 105.964 22.1846 106.473 22.198C108.062 22.3068 109.245 22.7961 110.023 23.6662C110.801 24.5362 111.19 25.7944 111.19 27.441C111.19 27.9075 111.167 28.3568 111.124 28.7861C111.074 29.2466 110.978 29.701 110.837 30.1426C110.426 31.3982 109.556 32.4529 108.4 33.096C107.709 33.4754 106.932 33.6724 106.144 33.6684H105.312C104.671 33.6711 104.036 33.5395 103.449 33.2821C102.853 33.0206 102.314 32.6453 101.863 32.1774ZM115.347 17.7278V32.6983C115.346 32.8241 115.38 32.9479 115.445 33.056C115.509 33.1654 115.6 33.2569 115.709 33.3221C115.808 33.3847 115.923 33.4183 116.041 33.4194H118.025C118.118 33.4222 118.211 33.405 118.297 33.3689C118.383 33.3329 118.461 33.2789 118.524 33.2105C118.589 33.1424 118.64 33.0621 118.674 32.9742C118.708 32.8862 118.725 32.7925 118.722 32.6983V17.7278H121.016C121.151 17.7292 121.284 17.6988 121.406 17.639C121.519 17.5855 121.618 17.5049 121.692 17.4044C121.759 17.312 121.796 17.2008 121.795 17.0867V15.2923C121.796 15.1782 121.759 15.067 121.692 14.9746C121.618 14.874 121.519 14.7934 121.406 14.7399C121.284 14.6802 121.151 14.6498 121.016 14.6512H113.203C112.997 14.6389 112.793 14.7009 112.629 14.8258C112.559 14.8815 112.504 14.9526 112.466 15.0336C112.429 15.1146 112.411 15.2032 112.414 15.2923V17.0867C112.408 17.1737 112.422 17.261 112.455 17.3418C112.487 17.4227 112.538 17.495 112.603 17.5532C112.767 17.6781 112.971 17.7401 113.177 17.7278H115.347ZM127.464 32.7927V15.4812C127.464 15.3505 127.498 15.2222 127.564 15.1091C127.628 14.993 127.722 14.8964 127.837 14.8298C127.952 14.7632 128.082 14.7292 128.215 14.7314H133.47C134.223 14.7256 134.967 14.9003 135.638 15.2408C136.242 15.5402 136.748 16.0049 137.097 16.5805C137.446 17.1561 137.625 17.819 137.611 18.4919V21.743C137.61 22.1703 137.526 22.5934 137.361 22.9879C137.195 23.3918 136.959 23.7637 136.664 24.0869C136.366 24.4134 136.015 24.688 135.627 24.8996L135.652 24.954L138.333 32.8185C138.359 32.8778 138.369 32.943 138.362 33.0073C138.362 33.0632 138.349 33.1184 138.324 33.1682C138.298 33.218 138.261 33.261 138.216 33.2935C138.111 33.3731 137.983 33.4145 137.851 33.4109H135.518C135.397 33.4089 135.278 33.3796 135.171 33.325C135.055 33.2686 134.948 33.1942 134.855 33.1046C134.77 33.0249 134.703 32.9271 134.66 32.8185L132.484 26.1302C132.28 26.0115 132.049 25.9474 131.813 25.9442C131.676 25.9397 131.54 25.9661 131.415 26.0217C131.29 26.0772 131.179 26.1603 131.091 26.2647V32.7927C131.091 32.877 131.073 32.9604 131.036 33.0363C130.999 33.1123 130.945 33.1787 130.879 33.2306C130.735 33.3508 130.553 33.414 130.365 33.408H128.221C128.026 33.4156 127.836 33.3526 127.685 33.2306C127.616 33.1799 127.56 33.1139 127.522 33.0379C127.484 32.9618 127.464 32.8778 127.464 32.7927ZM132.665 22.7046C132.929 22.7073 133.189 22.6412 133.419 22.5128C133.644 22.3897 133.832 22.2102 133.967 21.992C134.099 21.781 134.168 21.5368 134.167 21.2879V18.8525C134.17 18.5908 134.1 18.3334 133.967 18.1084C133.835 17.8855 133.646 17.7018 133.419 17.5761C133.189 17.4454 132.929 17.3782 132.665 17.3815H131.191C131.145 17.3816 131.099 17.3919 131.057 17.4117C131.014 17.4315 130.977 17.4602 130.947 17.4959C130.882 17.5656 130.845 17.6577 130.844 17.7535V22.2495C130.843 22.3093 130.855 22.3687 130.878 22.4238C130.901 22.479 130.936 22.5287 130.979 22.5701C131.02 22.6126 131.07 22.6464 131.124 22.6695C131.179 22.6926 131.238 22.7045 131.297 22.7046H132.665ZM140.601 15.3467V32.6324C140.6 32.7256 140.618 32.8181 140.652 32.9046C140.687 32.991 140.739 33.0697 140.805 33.1361C140.872 33.2043 140.953 33.2579 141.043 33.2933C141.132 33.3288 141.228 33.3454 141.324 33.3422H149.231C149.36 33.3436 149.486 33.311 149.598 33.2477C149.707 33.1842 149.797 33.0935 149.859 32.9844C149.924 32.8762 149.957 32.7526 149.957 32.6267V30.7808C149.959 30.6877 149.942 30.5951 149.906 30.5092C149.87 30.4233 149.816 30.3461 149.747 30.2828C149.608 30.1513 149.423 30.0803 149.231 30.0854H143.818V25.2202H147.918C148.008 25.2261 148.097 25.2128 148.182 25.1812C148.266 25.1496 148.342 25.1005 148.406 25.0371C148.469 24.9737 148.518 24.8975 148.55 24.8136C148.582 24.7296 148.595 24.6399 148.589 24.5505V22.6788C148.593 22.59 148.579 22.5012 148.547 22.4181C148.516 22.3349 148.467 22.259 148.405 22.1951C148.341 22.1328 148.265 22.0842 148.181 22.0522C148.097 22.0202 148.008 22.0056 147.918 22.0091H143.818V17.9166H149.231C149.36 17.917 149.487 17.8835 149.598 17.8193C149.707 17.7558 149.797 17.6651 149.859 17.556C149.925 17.4462 149.958 17.3204 149.957 17.1926V15.3467C149.959 15.2536 149.942 15.1609 149.906 15.0751C149.87 14.9892 149.816 14.912 149.747 14.8487C149.608 14.7172 149.423 14.6462 149.231 14.6512H141.324C141.228 14.6476 141.133 14.6629 141.043 14.6963C140.954 14.7297 140.872 14.7805 140.802 14.8458C140.735 14.9109 140.683 14.989 140.649 15.0752C140.614 15.1614 140.598 15.2539 140.601 15.3467ZM152.156 32.6982V15.3467C152.158 15.221 152.197 15.0988 152.267 14.9947C152.33 14.8889 152.42 14.8019 152.528 14.7428C152.623 14.6865 152.731 14.655 152.841 14.6512H155.909C156.04 14.6509 156.17 14.6751 156.293 14.7228C156.409 14.766 156.515 14.8322 156.605 14.9174C156.681 14.9879 156.728 15.0836 156.737 15.1864L159.177 23.0537L161.617 15.1864C161.666 15.0239 161.778 14.8872 161.927 14.8058C162.091 14.7032 162.281 14.6496 162.474 14.6512H165.531C165.623 14.6485 165.715 14.6645 165.801 14.6985C165.887 14.7325 165.964 14.7836 166.03 14.8487C166.095 14.9139 166.146 14.9917 166.18 15.0773C166.214 15.1629 166.23 15.2546 166.228 15.3467V32.6982C166.23 32.7903 166.214 32.882 166.18 32.9676C166.146 33.0533 166.095 33.131 166.03 33.1962C165.964 33.2613 165.887 33.3124 165.801 33.3464C165.715 33.3804 165.623 33.3965 165.531 33.3937H163.601C163.511 33.3971 163.422 33.3816 163.338 33.348C163.255 33.3145 163.179 33.2637 163.117 33.1991C162.991 33.0631 162.924 32.8832 162.93 32.6982V21.5798L160.895 28.1192C160.875 28.1764 160.844 28.229 160.803 28.2738C160.74 28.3431 160.672 28.4072 160.599 28.4655L160.465 28.5457C160.33 28.6095 160.184 28.6465 160.035 28.6544H158.314C158.165 28.6465 158.019 28.6095 157.884 28.5457L157.752 28.4655C157.633 28.3759 157.54 28.2564 157.483 28.1192L155.447 21.5884V32.6982C155.446 32.8154 155.413 32.9301 155.353 33.0302C155.291 33.1354 155.206 33.2246 155.103 33.2907C155.007 33.3575 154.893 33.3934 154.776 33.3937H152.841C152.722 33.3926 152.607 33.3568 152.508 33.2907C152.402 33.2251 152.311 33.136 152.245 33.0302C152.183 32.9304 152.153 32.8151 152.156 32.6982ZM168.401 28.3596C168.398 29.2794 168.638 30.1837 169.098 30.9811C169.402 31.5043 169.795 31.971 170.259 32.3605C170.718 32.7515 171.242 33.0595 171.807 33.2706C172.37 33.4887 172.969 33.6032 173.573 33.6083H174.459C175.359 33.6123 176.242 33.3612 177.005 32.8843C177.525 32.5684 177.987 32.1668 178.373 31.6966C178.755 31.2287 179.056 30.7007 179.264 30.134C179.474 29.5667 179.58 28.967 179.58 28.3625L179.551 19.5336C179.574 18.6199 179.346 17.7174 178.892 16.9236C178.594 16.4112 178.206 15.9573 177.745 15.5842C176.813 14.82 175.643 14.404 174.436 14.408H173.553C172.648 14.394 171.757 14.6244 170.973 15.0748C170.453 15.3748 169.99 15.7621 169.602 16.2195C169.215 16.6746 168.913 17.1951 168.71 17.7564C168.503 18.3309 168.398 18.9373 168.401 19.5479V28.3596ZM175.047 30.1455C174.735 30.3433 174.373 30.4476 174.003 30.446L173.906 30.4374C173.527 30.4391 173.156 30.335 172.833 30.1369C172.509 29.9361 172.24 29.6577 172.051 29.327C171.861 28.998 171.762 28.6247 171.764 28.2452V19.4935C171.759 19.1245 171.859 18.7615 172.051 18.4461C172.238 18.1366 172.503 17.8811 172.819 17.7049C173.148 17.5235 173.518 17.4299 173.894 17.433H173.975C174.349 17.4292 174.717 17.5229 175.044 17.7049C175.366 17.8791 175.634 18.1379 175.818 18.4532C176.003 18.7685 176.099 19.1282 176.093 19.4935V28.2538C176.093 28.6315 175.996 29.003 175.813 29.3336C175.63 29.6643 175.367 29.9436 175.047 30.1455ZM184.325 32.7126L180.813 15.3724C180.807 15.3297 180.807 15.2864 180.813 15.2436C180.811 15.1658 180.827 15.0886 180.859 15.0178C180.891 14.9469 180.939 14.8842 180.999 14.8344C181.135 14.7249 181.306 14.6663 181.481 14.6684H183.76C183.846 14.6676 183.932 14.6881 184.008 14.728C184.085 14.7679 184.15 14.8261 184.199 14.8974C184.332 15.1013 184.412 15.3356 184.431 15.5785L186.762 28.932C186.782 28.9916 186.822 29.0429 186.874 29.078C186.925 29.1217 186.99 29.146 187.057 29.1467C187.155 29.1467 187.218 29.0751 187.247 28.932L189.523 15.2579C189.546 15.0885 189.621 14.9303 189.738 14.8058C189.876 14.7022 190.048 14.6533 190.22 14.6684H192.499C192.682 14.6622 192.861 14.7188 193.007 14.8287C193.07 14.8768 193.122 14.9392 193.156 15.0108C193.191 15.0824 193.209 15.1612 193.207 15.2408C193.213 15.2816 193.213 15.323 193.207 15.3638L189.658 32.7126C189.637 32.814 189.596 32.9103 189.537 32.9957C189.479 33.0812 189.404 33.1542 189.317 33.2105C189.135 33.3404 188.918 33.4095 188.694 33.408H185.314C185.163 33.4086 185.014 33.3774 184.875 33.3164C184.738 33.26 184.614 33.1751 184.511 33.0674C184.414 32.9709 184.349 32.8471 184.325 32.7126ZM194.833 15.3467V32.6324C194.832 32.7275 194.849 32.8218 194.885 32.9099C194.921 32.9979 194.975 33.0777 195.042 33.1447C195.11 33.2131 195.191 33.2667 195.28 33.3022C195.369 33.3376 195.465 33.3542 195.561 33.3508H203.463C203.591 33.3521 203.716 33.3195 203.827 33.2563C203.937 33.1938 204.028 33.1028 204.091 32.993C204.155 32.8827 204.189 32.7572 204.189 32.6296V30.7837C204.191 30.6906 204.173 30.5983 204.137 30.5125C204.101 30.4267 204.047 30.3494 203.979 30.2857C203.84 30.1545 203.655 30.0835 203.463 30.0882H198.05V25.223H202.15C202.239 25.2271 202.328 25.2129 202.411 25.1814C202.495 25.1499 202.571 25.1017 202.635 25.0399C202.697 24.9756 202.746 24.8993 202.778 24.8157C202.81 24.7321 202.824 24.6428 202.821 24.5533V22.6817C202.826 22.5928 202.812 22.5039 202.78 22.4207C202.749 22.3374 202.7 22.2617 202.637 22.1984C202.575 22.1351 202.5 22.0855 202.417 22.0529C202.334 22.0203 202.245 22.0054 202.156 22.0091H198.05V17.9166H203.469C203.597 17.9171 203.722 17.8835 203.833 17.8193C203.943 17.7568 204.034 17.6658 204.097 17.556C204.161 17.4457 204.195 17.3202 204.194 17.1926V15.3467C204.196 15.2537 204.179 15.1613 204.143 15.0755C204.107 14.9897 204.053 14.9124 203.985 14.8487C203.846 14.7175 203.66 14.6465 203.469 14.6512H195.561C195.465 14.6465 195.368 14.6613 195.278 14.6947C195.187 14.7282 195.104 14.7796 195.034 14.8458C194.967 14.9109 194.915 14.989 194.881 15.0752C194.846 15.1614 194.83 15.2539 194.833 15.3467Z" fill="#111111"/>
</g>
<defs>
<linearGradient id="paint0_linear_4338_945" x1="24.0441" y1="0" x2="24.0441" y2="48" gradientUnits="userSpaceOnUse">
<stop stop-color="#6A48E3"/>
<stop offset="1" stop-color="#DDA1FD"/>
</linearGradient>
<clipPath id="clip0_4338_945">
<rect width="218" height="48" fill="white"/>
</clipPath>
</defs>
</svg>
