<svg width="18" height="17" viewBox="0 0 18 17" fill="none" xmlns="http://www.w3.org/2000/svg">
<path d="M8.10326 0.77304C8.47008 0.0297946 9.52992 0.0297946 9.89674 0.77304L11.7063 4.43953C11.8519 4.73467 12.1335 4.93924 12.4592 4.98657L16.5054 5.57452C17.3256 5.6937 17.6531 6.70167 17.0596 7.28021L14.1318 10.1342C13.8961 10.3639 13.7885 10.6949 13.8442 11.0193L14.5353 15.0492C14.6754 15.8661 13.818 16.489 13.0844 16.1033L9.46534 14.2007C9.17402 14.0475 8.82598 14.0475 8.53466 14.2007L4.91562 16.1033C4.18199 16.489 3.32456 15.8661 3.46467 15.0492L4.15585 11.0193C4.21148 10.6949 4.10393 10.3639 3.86825 10.1342L0.940384 7.28021C0.346867 6.70167 0.674378 5.6937 1.4946 5.57452L5.54081 4.98657C5.86652 4.93924 6.14808 4.73467 6.29374 4.43953L8.10326 0.77304Z" fill="#999999"/>
</svg>
