<svg width="49" height="48" viewBox="0 0 49 48" fill="none" xmlns="http://www.w3.org/2000/svg">
<path fill-rule="evenodd" clip-rule="evenodd" d="M37.9193 36.1699L37.2126 40.0576L47.7272 36.3452L39.1556 29.3682L38.375 33.6626C27.0522 29.0986 19.1492 18.4079 19.1492 6H16.6492C16.6492 19.692 25.4759 31.3653 37.9193 36.1699ZM16.6921 15.103C10.9727 18.1677 7.83333 23.5 7.83333 23.5C7.83333 23.5 14.0151 34 24.8333 34C26.6167 34 28.274 33.7147 29.7984 33.2381C29.1854 32.8066 28.5872 32.3565 28.005 31.8885C27.025 32.2829 25.9545 32.5 24.8333 32.5C20.1389 32.5 16.3333 28.6944 16.3333 24C16.3333 22.0768 16.972 20.3028 18.0489 18.8785C17.5222 17.655 17.0681 16.3949 16.6921 15.103ZM19.3504 21.5596C19.0181 22.3052 18.8333 23.131 18.8333 24C18.8333 27.3137 21.5196 30 24.8333 30C25.1509 30 25.4628 29.9753 25.767 29.9278C23.2075 27.4848 21.0351 24.665 19.3504 21.5596ZM30.0071 27.0403C27.2004 24.5463 24.8973 21.5516 23.2503 18.211C23.7546 18.0734 24.2854 18 24.8333 18C28.147 18 30.8333 20.6863 30.8333 24C30.8333 25.1095 30.5322 26.1487 30.0071 27.0403ZM31.9603 28.6339C32.8287 27.301 33.3333 25.7094 33.3333 24C33.3333 19.3056 29.5277 15.5 24.8333 15.5C23.9286 15.5 23.0569 15.6413 22.2391 15.9031C21.9192 15.0726 21.6384 14.2243 21.3988 13.3606C22.4849 13.1298 23.6305 13 24.8333 13C35.6515 13 41.8333 23.5 41.8333 23.5C41.8333 23.5 39.4362 27.5716 35.0151 30.6439C33.9517 30.0326 32.9318 29.3609 31.9603 28.6339Z" fill="#6A34D8"/>
</svg>
