<svg width="48" height="48" viewBox="0 0 48 48" fill="none" xmlns="http://www.w3.org/2000/svg">
<path fill-rule="evenodd" clip-rule="evenodd" d="M8.5 25C8.5 16.4373 15.4075 9.5 23.9233 9.5C30.6982 9.5 36.4559 13.8907 38.5265 19.9992L39.4735 19.6782C37.2704 13.1786 31.1423 8.5 23.9233 8.5C14.8507 8.5 7.5 15.8896 7.5 25C7.5 34.1104 14.8507 41.5 23.9233 41.5C29.894 41.5 35.119 38.2988 37.9932 33.5156L37.136 33.0005C34.4343 37.4968 29.5271 40.5 23.9233 40.5C15.4075 40.5 8.5 33.5627 8.5 25ZM32.5228 21.3853L38.0725 30.0667L45.0453 22.4809L38.6655 23.2887L32.5228 21.3853ZM30 21C30 24.3137 27.3137 27 24 27C20.6863 27 18 24.3137 18 21C18 17.6863 20.6863 15 24 15C27.3137 15 30 17.6863 30 21ZM18.5131 28.2051C18.7785 28.0652 19.0759 28 19.376 28H28.624C28.9241 28 29.2215 28.0652 29.4869 28.2051C30.2483 28.6066 30.9708 29.089 31.646 29.6428C32.4567 30.3078 32.4566 31.5256 31.6459 32.1906C29.4894 33.9595 26.8503 35 23.9999 35C21.1496 35 18.5105 33.9595 16.3541 32.1906C15.5434 31.5256 15.5433 30.3078 16.354 29.6428C17.0292 29.089 17.7517 28.6066 18.5131 28.2051Z" fill="#6A34D8"/>
</svg>
