<svg width="49" height="48" viewBox="0 0 49 48" fill="none" xmlns="http://www.w3.org/2000/svg">
<g clip-path="url(#clip0_4330_241)">
<path fill-rule="evenodd" clip-rule="evenodd" d="M24.6666 35C29.9133 35 34.1666 30.7467 34.1666 25.5C34.1666 20.2533 29.9133 16 24.6666 16C19.4199 16 15.1666 20.2533 15.1666 25.5C15.1666 30.7467 19.4199 35 24.6666 35ZM20.1666 24C19.6143 24 19.1666 24.4477 19.1666 25V26C19.1666 26.5523 19.6143 27 20.1666 27H29.1666C29.7189 27 30.1666 26.5523 30.1666 26V25C30.1666 24.4477 29.7189 24 29.1666 24H20.1666Z" fill="#6A34D8"/>
<path d="M21.4113 4.39823C22.4525 1.98034 25.8807 1.98034 26.922 4.39823L31.0327 13.9438C31.467 14.9523 32.4177 15.643 33.511 15.7444L43.8597 16.7042C46.481 16.9473 47.5404 20.2077 45.5626 21.9452L37.7545 28.8045C36.9296 29.5292 36.5665 30.6467 36.8079 31.7179L39.093 41.8566C39.6718 44.4248 36.8983 46.4398 34.6347 45.0958L25.6983 39.7895C24.7541 39.2289 23.5791 39.2289 22.6349 39.7895L13.6986 45.0958C11.435 46.4398 8.66148 44.4248 9.24029 41.8566L11.5254 31.7179C11.7668 30.6467 11.4037 29.5292 10.5787 28.8045L2.77067 21.9452C0.792881 20.2077 1.85226 16.9473 4.47357 16.7042L14.8222 15.7444C15.9156 15.643 16.8662 14.9523 17.3005 13.9438L21.4113 4.39823Z" stroke="#6A34D8" stroke-dasharray="2 2"/>
</g>
<defs>
<clipPath id="clip0_4330_241">
<rect width="48" height="48" fill="white" transform="translate(0.166626)"/>
</clipPath>
</defs>
</svg>
